<?xml version="1.0" encoding="UTF-8"?>
<svg width="170px" height="69px" viewBox="0 0 170 69" version="1.1" xmlns="http://www.w3.org/2000/svg" xmlns:xlink="http://www.w3.org/1999/xlink">
    <!-- Generator: Sketch 50.2 (55047) - http://www.bohemiancoding.com/sketch -->
    <title>aosb-logo</title>
    <desc>Created with Sketch.</desc>
    <defs></defs>
    <g id="Page-1" stroke="none" stroke-width="1" fill="none" fill-rule="evenodd">
        <g id="Artboard-Copy" transform="translate(-375.000000, -31.000000)" fill-rule="nonzero">
            <g id="aosb-logo" transform="translate(375.000000, 31.000000)">
                <path d="M39.2793059,4.91623037 L40.4075412,63.1780105 C53.8210063,60.2879581 63.8497653,48.434555 63.8497653,34.1518325 C63.8079788,19.4921466 53.1942089,7.30366492 39.2793059,4.91623037 Z" id="Shape" fill="#273591"></path>
                <path d="M35.6714598,0.79582064 L36.3818302,0.79582064 L37.8861441,67.6866397 L36.0475383,67.6866397 L35.6714598,0.79582064 Z M34.5432244,0 L34,68.6500015 L38.805447,68.6500015 L37.4264926,0 L34.5432244,0 Z" id="Shape" fill="#273591"></path>
                <path d="M30.0027038,37.3769634 L30.0027038,38.8848168 C30.0027038,39.7643979 29.2087604,40.5602094 28.331244,40.5602094 C27.3701546,40.5602094 26.6597842,39.7643979 26.6597842,38.8848168 L26.6597842,37.3769634 L26.6597842,33.0628272 L26.6597842,29.2094241 C26.6597842,28.3298429 27.3701546,27.5340314 28.331244,27.5340314 C29.2087604,27.5340314 30.0027038,28.3298429 30.0027038,29.2094241 L30.0027038,33.0628272 L30.0027038,37.3769634 Z M28.331244,26.0680628 C26.5762112,26.0680628 25.1972568,27.4921466 25.1972568,29.2094241 L25.1972568,38.8848168 C25.1972568,40.5602094 26.5762112,42.026178 28.331244,42.026178 C30.0027038,42.026178 31.4652312,40.6020942 31.4652312,38.8848168 L31.4652312,29.2094241 C31.4234447,27.4921466 30.0027038,26.0680628 28.331244,26.0680628 Z" id="Shape" fill="#273591"></path>
                <path d="M45.3383477,20.0366492 L45.3383477,21.3350785 C45.3383477,22.1308901 44.7115503,22.7591623 43.9176069,22.7591623 C43.1236634,22.7591623 42.496866,22.1308901 42.496866,21.3350785 L42.496866,20.0366492 L42.496866,16.434555 L42.496866,13.1675393 C42.496866,12.3717277 43.1236634,11.7434555 43.9176069,11.7434555 C44.7115503,11.7434555 45.3383477,12.3717277 45.3383477,13.1675393 L45.3383477,16.434555 L45.3383477,20.0366492 Z M43.9176069,10.5287958 C42.496866,10.5287958 41.2850576,11.7434555 41.2850576,13.1675393 L41.2850576,21.3350785 C41.2850576,22.8429319 42.496866,24.0575916 43.9176069,24.0575916 C45.4219207,24.0575916 46.6337291,22.8429319 46.6337291,21.3350785 L46.6337291,13.1675393 C46.6337291,11.7434555 45.4219207,10.5287958 43.9176069,10.5287958 Z" id="Shape" fill="#FFFFFF"></path>
                <path d="M20.1828774,43.9947644 C20.5171693,43.9947644 20.8096748,43.9109948 21.1439668,43.8272251 C22.3557751,43.408377 23.0661456,42.7801047 23.442224,41.9005236 C24.3197404,39.8900524 23.0243591,37.2513089 21.5200452,34.1937173 C20.8096748,32.7696335 20.0993044,31.2198953 19.5978664,29.7958115 C19.138215,28.2879581 19.054642,27.1570681 19.5978664,26.4450262 C20.0157314,25.8167539 20.8932478,25.6492147 21.1857533,25.6492147 C21.7289777,25.6492147 22.9407861,26.0680628 23.442224,26.5287958 L23.442224,24.6020942 C22.6482806,24.2670157 21.7707642,24.0575916 21.1857533,24.0575916 C20.4753828,24.0575916 19.0964285,24.3926702 18.2189121,25.565445 C17.4249687,26.6963351 17.3413957,28.2879581 18.0517661,30.2984293 C18.5949905,31.8062827 19.3471475,33.4397906 20.0575179,34.8638743 C21.2693263,37.4188482 22.5229211,39.973822 21.9796967,41.2722513 C21.7289777,41.7329843 21.3528992,42.0680628 20.6007423,42.3193717 C19.5560799,42.6544503 18.2189121,41.7748691 17.7174741,41.3560209 L17.0071037,42.7801047 C17.7592606,43.2827225 18.887496,43.9947644 20.1828774,43.9947644 Z" id="Shape" fill="#273591"></path>
                <path d="M11.0316348,35.3664921 L11.0316348,29.4188482 C11.0316348,28.4554974 11.7420053,27.7434555 12.7030947,27.7434555 C13.5806111,27.7434555 14.3745545,28.4554974 14.3745545,29.4188482 L14.3745545,35.3664921 L11.0316348,35.3664921 Z M12.7448812,26.2356021 C10.9898483,26.2356021 9.52732099,27.6596859 9.52732099,29.460733 L9.52732099,41.9005236 L11.0316348,41.9005236 L11.0316348,36.7905759 L14.3745545,36.7905759 L14.3745545,41.9005236 L15.7952953,41.9005236 L15.7952953,29.460733 C15.8370818,27.6596859 14.416341,26.2356021 12.7448812,26.2356021 Z" id="Shape" fill="#273591"></path>
                <path d="M48.2216159,39.6806283 C48.4723349,39.6806283 48.7648404,39.5968586 49.0155593,39.513089 C50.0602217,39.1780105 50.6870191,38.6335079 51.0213111,37.921466 C51.7316815,36.2460733 50.6034462,33.9842932 49.3498513,31.3455497 C48.8066268,30.0471204 48.1380429,28.8743455 47.7619645,27.5759162 C47.302313,26.2774869 47.302313,25.3141361 47.6783915,24.7696335 C48.0962564,24.2251309 48.8066268,24.0575916 49.0991323,24.0575916 C49.5587838,24.0575916 50.5198732,24.4764398 51.0213111,24.7696335 L51.0213111,23.2617801 C50.3945137,22.9267016 49.6005703,22.7172775 49.0991323,22.7172775 C48.4723349,22.7172775 47.2605265,23.052356 46.6337291,24.0157068 C45.9233587,24.9790576 45.8397857,26.3193717 46.4665831,28.1204188 C46.884448,29.4188482 47.5112455,30.6753927 48.1380429,31.973822 C49.1827053,34.1518325 50.2273677,36.2879581 49.7259297,37.4188482 C49.5587838,37.8376963 49.2662783,38.1308901 48.5976944,38.2984293 C47.720178,38.6335079 46.5083696,37.8376963 46.1322911,37.4188482 L45.5890667,38.7172775 C46.1322911,39.1361257 47.1769535,39.6806283 48.2216159,39.6806283 Z" id="Shape" fill="#FFFFFF"></path>
                <path d="M4.63830101,34.1518325 C4.63830101,18.1937173 17.1742497,5.12565445 33.0113315,4.4973822 L33.0113315,2.10994764 C31.6323772,2.19371728 30.2116363,2.44502618 28.8744685,2.65445026 L27.3701546,0.267015707 L22.5647076,1.64921466 L22.5647076,4.62303665 C21.4364722,5.08376963 20.3082369,5.58638743 19.305361,6.13089005 L16.9235307,4.28795812 L12.9120271,7.17801047 L13.7895435,9.81675393 C13.2463191,10.3612565 12.6613082,10.8638743 12.1180837,11.3246073 C11.6584323,11.7853403 11.2405673,12.2879581 10.7391294,12.7486911 L8.35729912,11.8691099 L5.39045793,15.8900524 L6.89477177,17.8167539 C6.18440135,18.947644 5.51581742,20.1204188 4.88901998,21.4188482 L2.59076273,21.3350785 L1.08644889,26.0680628 L2.92505469,27.4502618 C2.59076273,28.9581152 2.38183025,30.5078534 2.29825726,32.0157068 L0.125359487,32.6439791 L0.208932478,37.6282723 L2.50718974,38.3403141 C2.67433572,39.7643979 2.96684119,41.3141361 3.38470614,42.7382199 L1.71324632,43.8691099 L3.30113315,48.6020942 L5.6829634,48.5183246 C6.22618784,49.4816754 6.81119878,50.4450262 7.35442322,51.408377 L6.39333382,53.7958115 L9.52732099,57.2303665 L11.4494998,56.3507853 C11.7002188,56.5183246 11.8673647,56.7696335 12.0762972,56.9790576 C12.9538136,57.7748691 13.914903,58.5706806 14.9595654,59.3664921 L14.249195,61.460733 L17.9264066,64.0157068 L19.8485854,62.5078534 C20.8096748,62.9685864 21.7707642,63.3874346 22.8154266,63.8062827 C23.0661456,63.8900524 23.2332915,63.973822 23.442224,64.0575916 L23.442224,66.5287958 L27.4537276,67.7434555 L28.832682,65.6492147 C30.2534228,65.9005236 31.6323772,66.1099476 33.053118,66.1937173 L33.053118,63.7225131 C17.2160362,63.1780105 4.63830101,50.1099476 4.63830101,34.1518325 Z" id="Shape" fill="#273591"></path>
                <path d="M53.7374333,52.1204188 C53.2777819,52.1204188 52.3166925,52.1204188 51.9824005,52.0366492 L51.9824005,39.052356 C52.525625,38.9685864 53.2777819,38.8848168 53.8210063,38.8848168 C56.2028366,38.8848168 57.247499,40.5602094 57.247499,42.2356021 C57.247499,43.617801 56.7042745,44.7068063 55.4924661,45.3769634 C56.8714205,45.8376963 57.4982179,47.1361257 57.4982179,48.5183246 C57.4982179,50.7382199 56.0774771,52.1204188 53.7374333,52.1204188 Z M53.8210063,40.0994764 L53.1942089,40.0994764 L53.1942089,44.8324607 C53.3613549,44.8324607 53.6120738,44.9162304 53.9045793,44.9162304 C55.1999607,44.9162304 56.0774771,43.8691099 56.0774771,42.4450262 C56.0774771,40.9790576 55.1581742,40.0994764 53.8210063,40.0994764 Z M53.9045793,45.8376963 C53.7374333,45.8376963 53.3613549,45.921466 53.1942089,45.921466 L53.1942089,50.9057592 C53.4449279,50.9895288 53.7374333,50.9895288 53.9881523,50.9895288 C55.1999607,50.9895288 56.2446231,50.1937173 56.2446231,48.3507853 C56.2028366,46.9685864 55.2417472,45.8376963 53.9045793,45.8376963 Z" id="Shape" fill="#FFFFFF"></path>
                <rect id="Rectangle-path" fill="#01B259" x="86" y="0" width="1.04466239" height="68.6500015"></rect>
                <path d="M133.215348,19.6596859 C132.881056,19.2408377 130.917091,17.3560209 128.409901,17.4816754 C124.899835,17.565445 120.42868,20.2879581 119.133299,24.0575916 C118.966153,24.3926702 118.88258,24.8534031 118.799007,25.2722513 C116.626109,21.7539267 113.617482,19.9109948 110.984932,19.0314136 C109.605978,18.6125654 107.307721,17.6492147 105.552688,18.1518325 C103.630509,18.6125654 102.418701,20.4554974 102.209768,21.1256545 C101.875476,22.0052356 102.209768,22.8848168 102.752993,23.5968586 C104.340879,25.6910995 108.352383,27.3664921 112.196741,28.6649215 C113.8682,29.2931937 115.456087,29.7958115 116.835042,30.0890052 L116.208244,38.3403141 L116.835042,38.3403141 L120.762972,38.591623 L121.013691,36.4973822 L121.473343,30.2565445 C122.685151,29.8376963 124.356611,29.1256545 126.111644,28.3298429 C129.454563,26.7382199 133.006415,24.895288 133.883932,22.382199 C134.176437,21.5026178 134.009291,20.4554974 133.215348,19.6596859 Z M112.572819,27.4921466 C110.107416,26.6125654 107.474867,25.565445 105.678047,24.434555 C104.716958,23.8900524 104.090161,23.3036649 103.672296,22.8429319 C103.254431,22.2984293 103.212644,21.8795812 103.338004,21.460733 C103.421577,21.1256545 104.466239,19.617801 106.054126,19.2827225 C107.642013,18.947644 109.898483,19.9109948 110.525281,20.1623037 C113.324976,21.1256545 116.667896,23.1361257 118.506501,27.4502618 C118.75722,28.1623037 118.673647,28.6649215 118.506501,29.1256545 L116.918615,28.7905759 C115.706806,28.4554974 114.077133,28.078534 112.572819,27.4921466 Z M119.760096,36.4136126 L119.676523,37.2931937 L117.503626,37.1256545 L117.963277,30.2984293 C119.091512,30.6335079 120.136175,30.4659686 120.136175,30.4659686 L119.760096,36.4136126 Z M132.71391,21.9633508 C132.254259,23.5549738 128.785979,25.7329843 125.610206,27.1570681 C123.938746,27.8691099 120.177961,29.2513089 120.177961,29.2513089 C119.927242,28.4554974 119.843669,28.2879581 119.760096,27.3246073 C119.843669,26.1937173 120.010815,25.2303665 120.219748,24.434555 C121.180837,21.6282723 123.353735,20.2041885 125.275914,19.3664921 C125.735565,19.1989529 127.532385,18.486911 129.036698,18.7382199 C130.624585,18.9895288 132.087113,20.1204188 132.296045,20.4136126 C132.797483,21 132.881056,21.4188482 132.71391,21.9633508 Z" id="Shape" fill="#01B259"></path>
                <path d="M118.255783,10.2774869 C119.384018,11.4921466 120.512253,13.5445026 120.888332,15.973822 C121.347983,18.6125654 121.222624,21.5863874 120.971905,22.2984293 C120.721186,23.0942408 120.010815,25.0209424 118.966153,25.1884817 C118.17221,25.3560209 117.754345,25.104712 116.960401,24.3089005 C116.793255,24.2251309 116.709682,24.0575916 116.542536,23.8900524 C115.247155,22.2984293 113.324976,17.9005236 111.987808,14.6753927 L111.820662,14.3403141 C111.820662,14.2565445 110.232775,10.3193717 111.402797,8.56020942 C111.946022,7.76439791 113.492122,7.17801047 114.620357,7.68062827 C115.790379,8.18324607 116.333604,8.35078534 118.255783,10.2774869 Z M114.327852,8.85340314 C113.366763,8.51832461 112.656392,8.85340314 112.3221,9.27225131 C111.778876,10.0680628 112.3221,12.6230366 112.865325,13.921466 C113.408549,15.2198953 115.915739,21.3769634 117.420053,23.2198953 C118.840793,25.0628272 119.509377,23.1361257 119.801883,22.0052356 C120.219748,20.7905759 120.219748,18.7801047 119.801883,16.8115183 C119.342231,14.8848168 119.342231,14.7172775 118.75722,13.3769634 C117.754345,10.8219895 115.372514,9.14659686 114.327852,8.85340314 Z" id="Shape" fill="#01B259"></path>
                <path d="M130.791731,47.6387435 C130.958877,46.1308901 131.334956,44.6649215 132.00354,43.408377 C132.546764,42.1099476 133.42428,41.0209424 134.468943,40.1413613 C135.430032,39.2617801 136.7672,38.7591623 138.3133,38.5497382 C139.190817,38.4659686 140.068333,38.6335079 140.94585,38.9685864 C141.823366,39.3874346 142.533736,39.9319372 143.244107,40.8115183 C143.954477,41.6910995 144.539488,42.8219895 144.99914,44.2460733 C145.458791,45.6701571 145.793083,47.3874346 145.960229,49.3560209 C146.127375,51.1989529 146.043802,52.9581152 145.70951,54.4659686 C145.291645,55.973822 144.831994,57.2722513 144.121623,58.4031414 C143.494826,59.4502618 142.617309,60.3298429 141.739793,60.9581152 C140.778704,61.5863874 139.734041,61.921466 138.689379,62.0890052 C137.895435,62.1727749 137.017919,62.0052356 136.140403,61.6701571 C135.179313,61.2513089 134.38537,60.7068063 133.674999,59.8272251 C132.881056,59.0314136 132.254259,57.9842932 131.669248,56.6020942 C131.209596,55.3036649 130.791731,53.7958115 130.708158,51.9528796 C130.541012,50.5706806 130.624585,49.0628272 130.791731,47.6387435 Z M133.507853,53.2094241 C133.758572,54.1727749 134.051078,55.1361257 134.552516,56.0157068 C135.09574,56.9790576 135.764324,57.6910995 136.474695,58.3193717 C137.268638,58.947644 138.229727,59.2827225 139.357963,59.1151832 C139.817614,59.0314136 140.402625,58.8638743 140.94585,58.5706806 C141.489074,58.3193717 142.074085,57.8586387 142.533736,57.1465969 C142.993388,56.434555 143.32768,55.5549738 143.578399,54.3403141 C143.912691,53.2094241 143.912691,51.7853403 143.829118,50.026178 C143.661972,48.2670157 143.369466,46.7591623 142.951601,45.6282723 C142.533736,44.4136126 142.157658,43.4502618 141.572647,42.8219895 C141.029423,42.1099476 140.444412,41.6073298 139.817614,41.3979058 C139.190817,41.1465969 138.522233,41.0628272 137.895435,41.1465969 C137.017919,41.2303665 136.223976,41.565445 135.597178,42.1099476 C134.970381,42.7382199 134.38537,43.4921466 134.009291,44.3717277 C133.591426,45.2513089 133.298921,46.2984293 133.131775,47.4293194 C132.964629,48.6439791 132.964629,49.8167539 133.048202,51.0314136 C133.131775,51.5340314 133.257134,52.2460733 133.507853,53.2094241 Z" id="Shape" fill="#273591"></path>
                <path d="M146.54524,59.3246073 C146.712386,59.2408377 146.795959,59.1570681 146.963105,59.1570681 C147.38097,59.0732984 147.840621,59.1570681 148.383846,59.408377 C148.92707,59.5759162 149.679227,59.6596859 150.473171,59.5759162 C151.183541,59.4921466 151.852125,59.2408377 152.228203,58.7801047 C152.687855,58.3193717 152.855001,57.8167539 152.855001,57.2722513 C152.771428,56.8115183 152.604282,56.2251309 152.311776,55.5968586 C151.977484,55.052356 151.601406,54.2984293 151.183541,53.6701571 C150.72389,52.9581152 150.222452,52.2460733 149.679227,51.408377 C149.219576,50.6963351 148.718138,49.9842932 148.258486,49.2303665 C147.798835,48.6020942 147.464543,47.8481675 147.130251,47.2198953 C146.795959,46.6753927 146.587027,46.0890052 146.587027,45.6282723 C146.587027,45.2094241 146.754173,44.6649215 147.046678,43.8691099 C147.38097,43.0732984 147.840621,42.2774869 148.425632,41.4816754 C148.968857,40.6858639 149.721014,39.973822 150.514957,39.3036649 C151.308901,38.6753927 152.186417,38.3403141 153.063933,38.2565445 C153.314652,38.2565445 153.523585,38.2565445 153.94145,38.2565445 C154.359315,38.2565445 154.735393,38.2565445 155.153258,38.3403141 C155.48755,38.4240838 155.780056,38.5078534 156.114348,38.591623 C156.448639,38.6753927 156.573999,38.8429319 156.573999,39.052356 C156.573999,39.513089 156.490426,39.8481675 156.32328,40.0157068 C156.072561,40.1832461 155.61291,40.2670157 154.818966,40.3507853 C152.896787,40.6020942 151.601406,40.9790576 150.807463,41.7748691 C150.013519,42.486911 149.679227,43.3664921 149.7628,44.3298429 C149.7628,44.9581152 150.097092,45.7539267 150.640317,46.6335079 C151.183541,47.5968586 151.852125,48.5602094 152.478922,49.6073298 C153.10572,50.6544503 153.774304,51.7853403 154.317528,52.8743455 C154.860753,54.0052356 155.195045,55.052356 155.278618,56.1413613 C155.278618,56.3089005 155.278618,56.6858639 155.111472,57.3560209 C155.027899,57.9005236 154.77718,58.5706806 154.484674,59.2827225 C154.150382,59.9109948 153.690731,60.4973822 153.063933,61.0418848 C152.520709,61.5863874 151.684979,61.921466 150.682103,62.0052356 C150.431384,62.0052356 150.055306,62.0052356 149.637441,62.0052356 C149.219576,61.921466 148.843497,61.8376963 148.425632,61.7539267 C148.007767,61.6701571 147.715262,61.5863874 147.38097,61.4188482 C147.046678,61.3350785 146.921318,61.2513089 146.837745,61.0837696 C146.754173,60.9162304 146.6706,60.6649215 146.587027,60.4554974 C146.503454,60.2879581 146.419881,60.0366492 146.419881,59.8272251 C146.419881,59.617801 146.461667,59.4921466 146.54524,59.3246073 Z" id="Shape" fill="#273591"></path>
                <path d="M158.454391,46.1727749 C158.454391,45.2931937 158.370818,44.6649215 158.287245,44.2460733 C158.287245,43.7853403 158.203672,43.4502618 158.036526,43.2827225 C157.952953,43.1151832 157.785807,42.947644 157.618661,42.8638743 C157.200796,42.6963351 156.991864,42.5287958 156.741145,42.4031414 C156.573999,42.3193717 156.490426,42.0680628 156.490426,41.8586387 C156.490426,41.7748691 156.490426,41.6910995 156.573999,41.6073298 C156.657572,41.4397906 156.908291,41.2722513 157.200796,41.0628272 C157.535088,40.895288 157.99474,40.6020942 158.621537,40.1832461 C159.331908,39.8481675 160.292997,39.3874346 161.504805,38.7591623 C161.671951,38.6753927 161.839097,38.591623 161.964457,38.591623 C162.215176,38.5078534 162.424108,38.5078534 162.925546,38.5078534 C164.764152,38.5078534 166.184893,38.7591623 167.229555,39.3036649 C168.274218,39.8481675 168.817442,40.8115183 168.817442,42.2774869 C168.817442,42.9895288 168.733869,43.5759162 168.650296,44.0366492 C168.48315,44.5811518 168.316004,45 167.939926,45.460733 C167.605634,45.8795812 167.145982,46.3403141 166.519185,46.8429319 C165.97596,47.3036649 165.140231,47.8062827 164.137355,48.434555 C164.597006,48.6020942 165.182017,48.8534031 165.808814,49.3141361 C166.519185,49.7329843 167.187769,50.1937173 167.730993,50.8219895 C168.357791,51.3664921 168.859229,52.0366492 169.31888,52.7486911 C169.736745,53.3769634 169.945678,54.1308901 169.945678,54.8429319 C169.945678,55.6387435 169.694959,56.3507853 169.235307,57.0209424 C168.775656,57.6492147 168.190645,58.3193717 167.480274,58.7801047 C166.769904,59.3246073 166.059533,59.8272251 165.182017,60.2041885 C164.304501,60.6230366 163.510557,60.9162304 162.800187,61.2513089 C162.089816,61.5026178 161.421232,61.7120419 160.878008,61.8795812 C160.334784,61.9633508 159.916919,62.0471204 159.749773,62.0471204 C158.621537,62.0471204 157.827594,61.9633508 157.451515,61.8795812 C157.03365,61.7958115 156.908291,61.5445026 156.908291,61.2513089 C156.908291,61.0837696 157.075437,60.8324607 157.326156,60.6230366 C157.576875,60.3717277 157.744021,60.078534 157.785807,59.7434555 C157.86938,59.3246073 157.952953,58.8638743 158.036526,58.1518325 C158.120099,57.4397906 158.203672,56.6439791 158.287245,55.6806283 C158.370818,54.8010471 158.370818,53.8376963 158.454391,52.7905759 C158.454391,51.8272251 158.537964,50.7801047 158.537964,49.8167539 C158.537964,48.2670157 158.454391,47.052356 158.454391,46.1727749 Z M160.543716,57.8586387 C160.543716,58.3193717 160.543716,58.6544503 160.627289,58.8219895 C160.627289,59.0732984 160.710862,59.1570681 160.794435,59.2408377 C160.878008,59.3246073 161.045154,59.3246073 161.2123,59.3246073 C161.671951,59.3246073 162.256962,59.2408377 162.967333,59.0732984 C163.59413,58.9895288 164.346287,58.7382199 164.973085,58.4450262 C165.599882,58.026178 166.184893,57.6492147 166.644544,57.1465969 C167.104196,56.6858639 167.354915,56.0157068 167.354915,55.3874346 C167.354915,54.9267016 167.104196,54.4240838 166.81169,53.8795812 C166.477398,53.4188482 166.10132,52.8324607 165.516309,52.3717277 C165.056658,51.9109948 164.471647,51.408377 163.844849,50.9895288 C163.301625,50.5706806 162.716614,50.3612565 162.173389,50.1099476 C161.92267,50.1937173 161.755524,50.2774869 161.546592,50.4450262 C161.295873,50.6125654 161.128727,50.6963351 161.003367,50.8638743 C160.836222,51.1151832 160.669076,51.4921466 160.669076,52.2879581 C160.585503,53 160.50193,54.2984293 160.50193,56.1413613 C160.460143,56.895288 160.460143,57.4816754 160.543716,57.8586387 Z M161.337659,48.0994764 C161.504805,48.1832461 161.671951,48.2670157 161.797311,48.2670157 C162.04803,48.2670157 162.424108,48.0994764 162.925546,47.7225131 C163.385198,47.3874346 163.886636,46.9267016 164.346287,46.3403141 C164.805939,45.8795812 165.223804,45.2931937 165.641669,44.6649215 C165.97596,44.0366492 166.10132,43.4502618 166.10132,42.9895288 C166.10132,42.6544503 166.017747,42.3612565 165.850601,41.9424084 C165.683455,41.6073298 165.432736,41.3141361 165.140231,40.9790576 C164.805939,40.7277487 164.42986,40.5183246 164.011995,40.3507853 C163.552344,40.1832461 162.967333,40.0157068 162.424108,40.0157068 C162.006243,40.0157068 161.630165,40.1832461 161.295873,40.3507853 C160.961581,40.6020942 160.836222,40.9790576 160.836222,41.565445 L160.836222,47.7225131 C161.003367,47.7643979 161.08694,47.9319372 161.337659,48.0994764 Z" id="Shape" fill="#273591"></path>
                <path d="M114.871076,67.5759162 L114.871076,65.1884817 L115.414301,65.1884817 L115.414301,67.6596859 C115.414301,68.1204188 115.66502,68.3717277 115.957525,68.3717277 C116.37539,68.3717277 116.584323,68.1204188 116.584323,67.6596859 L116.584323,65.1884817 L117.127547,65.1884817 L117.127547,67.5759162 C117.127547,68.4554974 116.667896,68.8743455 115.915739,68.8743455 C115.372514,68.8324607 114.871076,68.4554974 114.871076,67.5759162 Z M115.372514,64.3507853 L115.832166,64.3507853 L115.832166,64.895288 L115.372514,64.895288 L115.372514,64.3507853 Z M116.166458,64.3507853 L116.709682,64.3507853 L116.709682,64.895288 L116.166458,64.895288 L116.166458,64.3507853 Z" id="Shape" fill="#01B259"></path>
                <path d="M117.754345,65.1465969 L118.715434,65.1465969 C119.133299,65.1465969 119.425804,65.2303665 119.676523,65.4816754 C119.843669,65.6492147 119.927242,65.9424084 119.927242,66.2774869 C119.927242,66.8219895 119.676523,67.1570681 119.300445,67.3246073 L120.010815,68.8324607 L119.384018,68.8324607 L118.75722,67.4502618 L118.339356,67.4502618 L118.339356,68.8324607 L117.796131,68.8324607 L117.796131,65.1465969 L117.754345,65.1465969 Z M118.631861,66.9895288 C119.091512,66.9895288 119.342231,66.6544503 119.342231,66.3612565 C119.342231,65.9005236 119.091512,65.6492147 118.715434,65.6492147 L118.297569,65.6492147 L118.297569,67.0314136 L118.631861,67.0314136 L118.631861,66.9895288 Z" id="Shape" fill="#01B259"></path>
                <polygon id="Shape" fill="#01B259" points="120.470467 65.1465969 122.309073 65.1465969 122.309073 65.6492147 121.055478 65.6492147 121.055478 66.6963351 122.183713 66.6963351 122.183713 67.2408377 121.055478 67.2408377 121.055478 68.2879581 122.309073 68.2879581 122.309073 68.8324607 120.470467 68.8324607"></polygon>
                <polygon id="Shape" fill="#01B259" points="123.353735 65.6492147 122.643365 65.6492147 122.643365 65.1465969 124.732689 65.1465969 124.732689 65.6492147 123.938746 65.6492147 123.938746 68.8324607 123.353735 68.8324607"></polygon>
                <path d="M125.192341,65.1465969 L125.735565,65.1465969 L125.735565,68.8324607 L125.192341,68.8324607 L125.192341,65.1465969 Z M125.192341,64.3507853 L125.651992,64.3507853 L125.651992,64.895288 L125.192341,64.895288 L125.192341,64.3507853 Z" id="Shape" fill="#01B259"></path>
                <path d="M126.404149,65.1465969 L127.365239,65.1465969 C127.783104,65.1465969 128.075609,65.2303665 128.242755,65.4816754 C128.493474,65.6492147 128.577047,65.9424084 128.577047,66.2774869 C128.577047,66.8219895 128.326328,67.1570681 127.950249,67.3246073 L128.66062,68.8324607 L128.033822,68.8324607 L127.407025,67.4502618 L127.323452,67.4502618 L126.98916,67.4502618 L126.98916,68.8324607 L126.445936,68.8324607 L126.445936,65.1465969 L126.404149,65.1465969 Z M127.281666,66.9895288 C127.741317,66.9895288 127.992036,66.6544503 127.992036,66.3612565 C127.992036,65.9005236 127.741317,65.6492147 127.281666,65.6492147 L126.947374,65.6492147 L126.947374,67.0314136 L127.281666,67.0314136 L127.281666,66.9895288 Z" id="Shape" fill="#01B259"></path>
                <polygon id="Shape" fill="#01B259" points="129.036698 65.1465969 129.579923 65.1465969 129.579923 66.947644 130.708158 65.1465969 131.376742 65.1465969 130.33208 66.6963351 131.418529 68.8324607 130.708158 68.8324607 129.914215 67.2408377 129.579923 67.7434555 129.579923 68.8324607 129.036698 68.8324607"></polygon>
                <polygon id="Shape" fill="#01B259" points="131.752821 65.1465969 133.591426 65.1465969 133.591426 65.6492147 132.337832 65.6492147 132.337832 66.6963351 133.507853 66.6963351 133.507853 67.2408377 132.337832 67.2408377 132.337832 68.2879581 133.674999 68.2879581 133.674999 68.8324607 131.752821 68.8324607"></polygon>
                <polygon id="Shape" fill="#01B259" points="134.176437 65.1465969 134.636089 65.1465969 135.93147 67.4921466 135.93147 65.1465969 136.474695 65.1465969 136.474695 68.8324607 135.93147 68.8324607 134.719662 66.3612565 134.719662 68.8324607 134.176437 68.8324607"></polygon>
                <polygon id="Shape" fill="#01B259" points="138.564019 65.1465969 139.190817 65.1465969 139.190817 66.947644 140.235479 65.1465969 140.862277 65.1465969 139.901187 66.6963351 140.94585 68.8324607 140.319052 68.8324607 139.525109 67.2408377 139.190817 67.7434555 139.190817 68.8324607 138.564019 68.8324607"></polygon>
                <path d="M140.94585,66.9895288 L140.94585,66.9057592 C140.94585,65.7748691 141.489074,65.0628272 142.324804,65.0628272 C143.035174,65.0628272 143.620185,65.7748691 143.620185,66.9057592 L143.620185,66.9895288 C143.620185,68.2041885 143.076961,68.8324607 142.324804,68.8324607 C141.530861,68.8324607 140.94585,68.2041885 140.94585,66.9895288 Z M143.035174,66.9895288 L143.035174,66.9057592 C143.035174,66.026178 142.700882,65.6073298 142.324804,65.6073298 C141.865153,65.6073298 141.614434,66.026178 141.614434,66.9057592 L141.614434,66.9895288 C141.614434,67.8691099 141.865153,68.3717277 142.324804,68.3717277 C142.700882,68.3717277 143.035174,67.9109948 143.035174,66.9895288 Z" id="Shape" fill="#01B259"></path>
                <path d="M144.079837,65.1465969 L145.124499,65.1465969 C145.458791,65.1465969 145.751297,65.2303665 146.002016,65.4816754 C146.169162,65.6492147 146.336308,65.9424084 146.336308,66.2774869 C146.336308,66.8219895 146.002016,67.1570681 145.70951,67.3246073 L146.419881,68.8324607 L145.793083,68.8324607 L145.166286,67.4502618 C145.082713,67.4502618 145.082713,67.4502618 145.082713,67.4502618 L144.664848,67.4502618 L144.664848,68.8324607 L144.121623,68.8324607 L144.121623,65.1465969 L144.079837,65.1465969 Z M145.040926,66.9895288 C145.500578,66.9895288 145.667724,66.6544503 145.667724,66.3612565 C145.667724,65.9005236 145.417005,65.6492147 145.040926,65.6492147 L144.623061,65.6492147 L144.623061,67.0314136 L145.040926,67.0314136 L145.040926,66.9895288 Z" id="Shape" fill="#01B259"></path>
                <path d="M146.712386,67.5759162 L146.712386,65.1884817 L147.25561,65.1884817 L147.25561,67.6596859 C147.25561,68.1204188 147.506329,68.3717277 147.882408,68.3717277 C148.2167,68.3717277 148.425632,68.1204188 148.425632,67.6596859 L148.425632,65.1884817 L148.968857,65.1884817 L148.968857,67.5759162 C148.968857,68.4554974 148.509205,68.8743455 147.840621,68.8743455 C147.172037,68.8324607 146.712386,68.4554974 146.712386,67.5759162 Z" id="Shape" fill="#01B259"></path>
                <polygon id="Shape" fill="#01B259" points="150.306025 67.3246073 149.344935 65.1465969 149.88816 65.1465969 150.640317 66.6963351 151.267114 65.1465969 151.810338 65.1465969 150.849249 67.3246073 150.849249 68.8324607 150.306025 68.8324607"></polygon>
                <path d="M151.893911,66.9895288 L151.893911,66.9057592 C151.893911,65.7748691 152.437136,65.0628272 153.189293,65.0628272 C153.983236,65.0628272 154.568247,65.7748691 154.568247,66.9057592 L154.568247,66.9895288 C154.568247,68.2041885 154.025023,68.8324607 153.189293,68.8324607 C152.478922,68.8324607 151.893911,68.2041885 151.893911,66.9895288 Z M153.899663,66.9895288 L153.899663,66.9057592 C153.899663,66.026178 153.648944,65.6073298 153.189293,65.6073298 C152.771428,65.6073298 152.478922,66.026178 152.478922,66.9057592 L152.478922,66.9895288 C152.478922,67.8691099 152.813214,68.3717277 153.189293,68.3717277 C153.648944,68.3717277 153.899663,67.9109948 153.899663,66.9895288 Z" id="Shape" fill="#01B259"></path>
                <path d="M155.027899,65.1465969 L155.988988,65.1465969 C156.406853,65.1465969 156.699358,65.2303665 156.950077,65.4816754 C157.117223,65.6492147 157.284369,65.9424084 157.284369,66.2774869 C157.284369,66.8219895 156.950077,67.1570681 156.657572,67.3246073 L157.367942,68.8324607 L156.699358,68.8324607 L156.072561,67.4502618 C155.988988,67.4502618 155.988988,67.4502618 155.988988,67.4502618 L155.571123,67.4502618 L155.571123,68.8324607 L155.027899,68.8324607 L155.027899,65.1465969 Z M155.905415,66.9895288 C156.448639,66.9895288 156.615785,66.6544503 156.615785,66.3612565 C156.615785,65.9005236 156.365066,65.6492147 155.988988,65.6492147 L155.571123,65.6492147 L155.571123,67.0314136 L155.905415,67.0314136 L155.905415,66.9895288 Z" id="Shape" fill="#01B259"></path>
                <path d="M157.660448,67.5759162 L157.660448,65.1884817 L158.203672,65.1884817 L158.203672,67.6596859 C158.203672,68.1204188 158.454391,68.3717277 158.83047,68.3717277 C159.164762,68.3717277 159.373694,68.1204188 159.373694,67.6596859 L159.373694,65.1884817 L159.916919,65.1884817 L159.916919,67.5759162 C159.916919,68.4554974 159.457267,68.8743455 158.70511,68.8743455 C158.120099,68.8324607 157.660448,68.4554974 157.660448,67.5759162 Z" id="Shape" fill="#01B259"></path>
                <polygon id="Shape" fill="#01B259" points="160.460143 68.3717277 161.797311 65.6492147 160.460143 65.6492147 160.460143 65.1465969 162.465895 65.1465969 162.465895 65.565445 161.08694 68.2879581 162.465895 68.2879581 162.465895 68.8324607 160.460143 68.8324607"></polygon>
                <path d="M115.038222,61.460733 C115.288941,61.5445026 116.876828,62.0052356 118.548288,62.0052356 C120.386894,62.0890052 122.392646,61.6701571 122.643365,61.460733 C123.06123,61 122.2255,42.2356021 122.2255,33.565445 C122.2255,33.3979058 122.141927,33.1465969 122.141927,33.104712 C121.431556,31.0104712 118.130423,31.8062827 116.458963,32.2251309 C115.748593,32.4764398 115.330728,33.3560209 115.330728,33.8167539 C115.999312,42.4031414 114.494998,61.1675393 115.038222,61.460733 Z" id="Shape" fill="#273591"></path>
                <path d="M128.409901,61.9633508 C129.830642,61.5445026 129.914215,60.2041885 129.914215,58.6125654 C129.914215,58.5287958 129.914215,58.3612565 129.914215,58.3612565 C129.914215,58.2774869 129.914215,58.2774869 129.914215,58.2774869 C129.37099,56.6858639 127.11452,57.4816754 125.902711,57.8167539 C125.568419,57.9005236 125.44306,58.4450262 125.359487,58.7801047 C124.816262,60.4554974 125.860925,62.591623 128.409901,61.9633508 Z" id="Shape" fill="#273591"></path>
            </g>
        </g>
    </g>
</svg>