<?xml version="1.0" encoding="UTF-8"?>
<svg width="48px" height="48px" viewBox="0 0 48 48" version="1.1" xmlns="http://www.w3.org/2000/svg" xmlns:xlink="http://www.w3.org/1999/xlink">
    <!-- Generator: Sketch 51.3 (57544) - http://www.bohemiancoding.com/sketch -->
    <title>Group 6</title>
    <desc>Created with Sketch.</desc>
    <defs></defs>
    <g id="Page-1" stroke="none" stroke-width="1" fill="none" fill-rule="evenodd">
        <g id="Artboard-Copy" transform="translate(-133.000000, -1139.000000)" fill="#51B6C7" fill-rule="nonzero">
            <g id="Group-6" transform="translate(133.000000, 1139.000000)">
                <g id="Group-5" transform="translate(5.000000, 33.306122)">
                    <rect id="Rectangle-path" x="0.25" y="0.504948931" width="14.999625" height="1.43853061"></rect>
                    <rect id="Rectangle-path" x="18.2655625" y="0.489612245" width="1.4685" height="4.40816327"></rect>
                    <rect id="Rectangle-path" x="22.766125" y="0.489612245" width="1.4685" height="4.40816327"></rect>
                    <rect id="Rectangle-path" x="27.26575" y="0.489612245" width="1.4685" height="4.40816327"></rect>
                    <rect id="Rectangle-path" x="31.765375" y="0.489612245" width="1.4685" height="4.40816327"></rect>
                    <rect id="Rectangle-path" x="36.2659375" y="0.489612245" width="1.4685" height="4.40816327"></rect>
                </g>
                <path d="M47.23425,44.0171658 L47.23425,21.5572187 L36.6710625,26.8997314 L35.1945,0.0154285714 L27.8100938,0.0154285714 L26.2935,24.5618546 L21.651375,26.9096887 L20.1818437,6.84328435 L12.8266875,6.84328435 L11.304,24.5565441 L0.76565625,29.8864441 L0.76565625,44.017071 L0,44.017071 L0,47.0358367 L48,47.0358367 L48,44.017071 L47.23425,44.0171658 Z M29.1898125,1.50086653 L33.8054062,1.50086653 L33.8904375,3.05003114 L29.0940937,3.05003114 L29.1898125,1.50086653 Z M29.0023125,4.53556393 L33.972,4.53556393 L34.057125,6.08472854 L28.9065937,6.08472854 L29.0023125,4.53556393 Z M28.8148125,7.57007167 L34.1387812,7.57007167 L35.2401562,27.6234841 L32.2343437,29.1437252 L32.2343437,21.5572188 L27.8124375,23.793626 L28.8148125,7.57007167 Z M14.173125,8.32872231 L18.8181562,8.32872231 L18.9315937,9.87788692 L14.04,9.87788692 L14.173125,8.32872231 Z M13.9122187,11.3633249 L19.04025,11.3633249 L19.1536875,12.9124895 L13.779,12.9124895 L13.9122187,11.3633249 Z M13.6513125,14.3979274 L19.2625312,14.3979274 L20.2313437,27.6278463 L17.23425,29.1437252 L17.23425,21.5572188 L12.8451562,23.7771253 L13.6513125,14.3979274 Z M5.26565625,44.0171658 L2.23425,44.0171658 L2.23425,42.4680012 L5.26575,42.4680012 L5.26575,44.0171658 L5.26565625,44.0171658 Z M18.7656562,44.0171658 L6.73425,44.0171658 L6.73425,38.674748 L18.7656562,38.674748 L18.7656562,44.0171658 Z M45.7656562,44.0171658 L20.23425,44.0171658 L20.23425,42.4680012 L45.7656562,42.4680012 L45.7656562,44.0171658 Z M45.76575,40.9824684 L20.23425,40.9824684 L20.23425,37.1892152 L5.26565625,37.1892152 L5.26565625,40.9824684 L2.23425,40.9824684 L2.23425,30.804601 L15.7656562,23.9608136 L15.7656562,31.54732 L30.7656562,23.9608136 L30.7656562,31.54732 L45.76575,23.9608136 L45.76575,40.9824684 Z" id="Shape"></path>
            </g>
        </g>
    </g>
</svg>