<?xml version="1.0" encoding="UTF-8"?>
<svg width="48px" height="48px" viewBox="0 0 48 48" version="1.1" xmlns="http://www.w3.org/2000/svg" xmlns:xlink="http://www.w3.org/1999/xlink">
    <!-- Generator: Sketch 50.2 (55047) - http://www.bohemiancoding.com/sketch -->
    <title>house-plan copy 2</title>
    <desc>Created with Sketch.</desc>
    <defs></defs>
    <g id="Page-1" stroke="none" stroke-width="1" fill="none" fill-rule="evenodd">
        <g id="Artboard-Copy" transform="translate(-496.000000, -1939.000000)" fill="#51B6C7" fill-rule="nonzero">
            <g id="house-plan-copy-2" transform="translate(496.000000, 1939.000000)">
                <path d="M45,4.00003125 L7.00003125,4.00003125 L7.00003125,6 L45,6 C45.5522812,6 46.0000312,6.44775 46.0000312,7.00003125 L46.0000312,37.0000313 C46.0000312,37.5523125 45.5522812,38.0000625 45,38.0000625 L45,40.0000313 C46.6568437,40.0000313 48,38.656875 48,37.0000313 L48,7.00003125 C48,5.3431875 46.6568437,4.00003125 45,4.00003125 Z" id="Shape"></path>
                <path d="M4.00003125,37.9999688 C2.89546875,37.9999688 2.0000625,37.1045625 2.0000625,36 C2.0000625,34.8954375 2.89546875,34.0000313 4.00003125,34.0000313 C5.10459375,34.0000312 6,34.8954375 6,36 L7.99996875,36 C7.99996875,33.790875 6.20915625,31.9999688 3.9999375,31.9999688 C1.79071875,31.9999688 0,33.790875 0,36 C0,38.209125 1.79090625,40.0000313 4.00003125,40.0000313 L35.0000625,40.0000313 L35.0000625,38.0000625 L4.00003125,38.0000625 L4.00003125,37.9999688 Z" id="Shape"></path>
                <path d="M4.00003125,0 C1.79090625,0 0,1.79090625 0,4.00003125 L0,36 L1.99996875,36 L1.99996875,4.00003125 C1.99996875,2.89546875 2.895375,2.0000625 3.9999375,2.0000625 C5.10459375,1.99996875 6,2.89546875 6,4.00003125 L6,36 L7.99996875,36 L7.99996875,4.00003125 C7.99996875,1.79090625 6.20915625,0 4.00003125,0 Z" id="Shape"></path>
                <path d="M31.0000312,9 L16.9999688,9 C15.343125,9 13.9999688,10.3431562 13.9999688,12 L13.9999688,25.9999688 C13.9999688,27.6568125 15.343125,28.9999688 16.9999688,28.9999688 L30.9999375,28.9999688 C32.6567813,28.9999688 33.9999375,27.6568125 33.9999375,25.9999688 L33.9999375,12 C34.0000312,10.3431562 32.656875,9 31.0000312,9 Z M31.9999688,25.9999688 C31.9999688,26.55225 31.5522188,27 30.9999375,27 L16.9999688,27 C16.4476875,27 15.9999375,26.55225 15.9999375,25.9999688 L15.9999375,12 C15.9999375,11.4477187 16.4476875,10.9999688 16.9999688,10.9999688 L30.9999375,10.9999688 C31.5522188,10.9999688 31.9999687,11.4477187 31.9999687,12 L31.9999687,25.9999688 Z" id="Shape"></path>
                <rect id="Rectangle-path" x="19.9999688" y="10.0000312" width="1.99996875" height="10.0000312"></rect>
                <rect id="Rectangle-path" x="19.9999688" y="22.9999688" width="1.99996875" height="4.99996875"></rect>
                <rect id="Rectangle-path" x="21" y="15" width="6" height="1.99996875"></rect>
                <rect id="Rectangle-path" x="30" y="15" width="3" height="1.99996875"></rect>
                <path d="M42,25.0000312 L37.9999688,25.0000312 C37.4476875,25.0000312 36.9999375,25.4477812 36.9999375,26.0000625 L36.9999375,47.0000625 C36.9999375,47.5523437 37.4476875,48.0000937 37.9999688,48.0000937 L42,48.0000937 C42.5522813,48.0000937 43.0000312,47.5523437 43.0000312,47.0000625 L43.0000312,26.0000625 C43.0000312,25.4476875 42.5522813,25.0000312 42,25.0000312 Z M40.9999688,46.0000312 L39,46.0000312 L39,27 L40.9999688,27 L40.9999688,46.0000312 Z" id="Shape"></path>
                <path d="M40.707,23.2930312 C40.3165313,22.9026563 39.6835313,22.9026563 39.2929688,23.2930312 L37.293,25.293 L38.7070313,26.7070313 L40.0000313,25.4140313 L41.2930313,26.7070313 L42.7070625,25.293 L40.707,23.2930312 Z" id="Shape"></path>
                <rect id="Rectangle-path" x="39" y="10.0000312" width="1.99996875" height="10.9999688"></rect>
                <rect id="Rectangle-path" x="37.9999688" y="9" width="4.00003125" height="1.99996875"></rect>
                <rect id="Rectangle-path" x="15" y="31.9999688" width="18" height="1.99996875"></rect>
                <rect id="Rectangle-path" x="31.9999688" y="31.0000312" width="1.99996875" height="4.00003125"></rect>
                <rect id="Rectangle-path" x="13.9999688" y="31.0000312" width="1.99996875" height="4.00003125"></rect>
            </g>
        </g>
    </g>
</svg>