<?xml version="1.0" encoding="UTF-8"?>
<svg width="56px" height="48px" viewBox="0 0 56 48" version="1.1" xmlns="http://www.w3.org/2000/svg" xmlns:xlink="http://www.w3.org/1999/xlink">
    <!-- Generator: Sketch 50.2 (55047) - http://www.bohemiancoding.com/sketch -->
    <title>Group 9</title>
    <desc>Created with Sketch.</desc>
    <defs></defs>
    <g id="Page-1" stroke="none" stroke-width="1" fill="none" fill-rule="evenodd">
        <g id="Artboard-Copy" transform="translate(-1224.000000, -885.000000)" fill="#FFFFFF" fill-rule="nonzero">
            <g id="Group-9" transform="translate(1224.000000, 885.000000)">
                <path d="M54.7864615,9.59446154 L28.2641893,0.121846154 C27.9862722,0.0225798817 27.6822249,0.0225798817 27.4043077,0.121846154 L0.882177515,9.59446154 C0.368946746,9.77779882 0.028260355,10.2666036 0.0340828402,10.811645 C0.0397633136,11.3566864 0.390674556,11.8382485 0.907739645,12.0106509 L11.6497988,15.5923314 L11.6497988,28.0751716 C11.6497988,28.6449231 12.0268402,29.1459408 12.5745799,29.303432 L27.4809941,33.5926154 C27.5964497,33.6257041 27.7153136,33.6424615 27.8343195,33.6424615 C27.9533254,33.6424615 28.0723314,33.6258462 28.187645,33.5926154 L32.8812781,32.2420828 C33.5596686,32.0468166 33.9513373,31.3387456 33.756213,30.660355 C33.5609467,29.9819645 32.8533018,29.5900118 32.1744852,29.7854201 L27.8343195,31.0342722 L14.2060118,27.1128994 L14.2060118,16.4445444 L27.4300118,20.8537278 C27.6924497,20.9412071 27.9761893,20.9413491 28.2384852,20.8537278 L30.6129231,20.0621538 C30.6132071,20.0621538 30.6133491,20.0620118 30.6136331,20.0618698 L32.6135858,19.3951243 C33.2831716,19.1718817 33.6451598,18.4480473 33.4217751,17.7783195 C33.1983905,17.1087337 32.4746982,16.7466036 31.8049704,16.9701302 L27.8343195,18.2939645 L15.9499172,14.3314083 L5.22816568,10.7565444 L27.8343195,2.68260355 L50.4404734,10.7565444 L42.3367101,13.4586036 C42.336568,13.4586036 42.336568,13.4586036 42.336568,13.4586036 L41.3363787,13.7920473 L40.511858,14.0669822 C40.511858,14.0669822 40.511716,14.0669822 40.511716,14.0669822 L39.2333254,14.4931598 C38.5635976,14.7164024 38.2017515,15.4402367 38.4251361,16.1099645 C38.6483787,16.7795503 39.371929,17.1409704 40.0419408,16.9181538 L41.4627692,16.4444024 L41.4627692,27.1127574 L39.8696805,27.5711716 C39.1912899,27.7664379 38.7996213,28.4745089 38.9947456,29.1528994 C39.156071,29.7132781 39.6670296,30.0779645 40.2225799,30.0779645 C40.3394556,30.0779645 40.4584615,30.0619172 40.5764734,30.0278343 L43.0942012,29.3032899 C43.6417988,29.1457988 44.0189822,28.6446391 44.0189822,28.0750296 L44.0189822,15.5921893 L54.7610414,12.0105089 C55.2782485,11.8381065 55.6290178,11.3566864 55.6346982,10.811503 C55.6403787,10.2664615 55.2996923,9.77779882 54.7864615,9.59446154 Z" id="Shape"></path>
                <path d="M37.6633846,16.7554083 C37.6625325,16.7258698 37.6616805,16.6961893 37.6588402,16.6666509 C37.6567101,16.6452071 37.6530178,16.6243314 37.6498935,16.6031716 C37.6469112,16.5832899 37.6447811,16.5635503 37.6409467,16.5439527 C37.6364024,16.5203787 37.6301538,16.4973728 37.6243314,16.4743669 C37.619929,16.4573254 37.6160947,16.440142 37.6111243,16.4232426 C37.6043077,16.4005207 37.596213,16.3786509 37.5882604,16.356497 C37.5820118,16.3393136 37.5763314,16.3221302 37.5693728,16.3052308 C37.5611361,16.2850651 37.5516213,16.2657515 37.5425325,16.2461538 C37.5338698,16.2278343 37.5256331,16.2092308 37.5159763,16.1911953 C37.5068876,16.1738698 37.4965207,16.1573964 37.4867219,16.1407811 C37.4753609,16.1216095 37.464284,16.1022959 37.451929,16.0835503 C37.4415621,16.067929 37.4300592,16.0530178 37.4188402,16.0376805 C37.4054911,16.019503 37.392568,16.0010414 37.3783669,15.983432 C37.3645917,15.9666746 37.3498225,15.9509112 37.3353373,15.9350059 C37.3219882,15.9202367 37.3093491,15.9051834 37.295432,15.8909822 C37.2727101,15.8679763 37.248568,15.8465325 37.224142,15.8253728 C37.2173254,15.8194083 37.2113609,15.8130178 37.2044024,15.8071953 L37.2012781,15.804497 C37.200568,15.803929 37.199716,15.8032189 37.1988639,15.8025089 L28.6517396,8.69126627 C28.1093964,8.23981065 27.3034793,8.3136568 26.8517396,8.85628402 C26.400284,9.39891124 26.4742722,10.2048284 27.0168994,10.656284 L35.1087337,17.3887811 L35.1087337,40.0476213 C33.6903195,40.3390296 32.6204024,41.5969704 32.6204024,43.1003077 L32.6204024,44.8364024 C32.6204024,46.5547456 34.0183669,47.952568 35.736568,47.952568 L37.4728047,47.952568 C39.1911479,47.952568 40.5889704,46.5546036 40.5889704,44.8364024 L40.5889704,43.1003077 C40.5889704,41.4465799 39.2939645,40.0903669 37.6649467,39.9906746 L37.6649467,16.7958817 C37.6649467,16.7955976 37.6649467,16.7951716 37.6649467,16.7947456 L37.6649467,16.7894911 C37.6650888,16.7781302 37.6636686,16.7669112 37.6633846,16.7554083 Z M38.0327574,43.1003077 L38.0327574,44.8364024 C38.0327574,45.1452781 37.7815385,45.396355 37.4728047,45.396355 L35.736568,45.396355 C35.4276923,45.396355 35.1766154,45.1451361 35.1766154,44.8364024 L35.1766154,43.1003077 C35.1766154,42.791432 35.4278343,42.540355 35.736568,42.540355 L37.4728047,42.540355 C37.7816805,42.540355 38.0327574,42.791432 38.0327574,43.1003077 Z" id="Shape"></path>
            </g>
        </g>
    </g>
</svg>