<?xml version="1.0" encoding="UTF-8"?>
<svg width="37px" height="48px" viewBox="0 0 37 48" version="1.1" xmlns="http://www.w3.org/2000/svg" xmlns:xlink="http://www.w3.org/1999/xlink">
    <!-- Generator: Sketch 50.2 (55047) - http://www.bohemiancoding.com/sketch -->
    <title>Group 10</title>
    <desc>Created with Sketch.</desc>
    <defs></defs>
    <g id="Page-1" stroke="none" stroke-width="1" fill="none" fill-rule="evenodd">
        <g id="Artboard-Copy" transform="translate(-1092.000000, -880.000000)" fill="#FFFFFF" fill-rule="nonzero">
            <g id="Group-10" transform="translate(1092.000000, 880.000000)">
                <path d="M26.4514909,15.7099636 L18.3133091,30.5070545 L12.8500364,20.9463273 L14.3310545,20.9463273 L17.5706182,26.6155636 L18.3508364,27.9805091 L19.0961455,26.5963636 L24.9582545,15.7090909 L26.4514909,15.7090909 L26.4514909,15.7099636 Z M27.9272727,14.8372364 L24.4363636,14.8372364 L18.3272727,26.1826909 L14.8363636,20.0736 L11.3454545,20.0736 L18.3272727,32.2917818 L27.9272727,14.8372364 Z" id="Shape"></path>
                <polygon id="Shape" points="26.1818182 19.8213818 26.1818182 33.1636364 10.4727273 33.1636364 10.4727273 18.3272727 21.5659636 18.3272727 22.0354909 17.4545455 9.6 17.4545455 9.6 34.0363636 27.0545455 34.0363636 27.0545455 18.2347636"></polygon>
                <path d="M13.9636364,6.10996364 L10.4727273,6.10996364 C9.71432727,6.10996364 8.95330909,6.47563636 8.54312727,6.98269091 L2.61818182,6.98269091 L2.61818182,35.7826909 L12.2181818,45.3826909 L34.0363636,45.3826909 L34.0363636,6.98269091 L28.1114182,6.98269091 C27.7012364,6.47563636 26.9402182,6.10996364 26.1818182,6.10996364 L22.6909091,6.10996364 L22.6909091,5.23723636 L22.6909091,4.36450909 L21.7021091,4.36450909 C20.9559273,3.49789091 20.5501091,3.49003636 20.5073455,2.63650909 C20.5073455,2.6304 20.5090909,2.62429091 20.5090909,2.61905455 C20.5090909,1.41556364 19.5307636,0.437236364 18.3272727,0.437236364 C17.2485818,0.437236364 16.3566545,1.22618182 16.1821091,2.256 C16.1629091,2.37469091 16.1454545,2.49425455 16.1454545,2.61905455 C16.1454545,2.62429091 16.1472,2.6304 16.1472,2.63650909 C16.1044364,3.49090909 15.6986182,3.49789091 14.9524364,4.36450909 L13.9636364,4.36450909 L13.9636364,5.23723636 L13.9636364,6.10996364 Z M11.3454545,43.2759273 L4.72494545,36.6554182 L11.3454545,36.6554182 L11.3454545,43.2759273 Z M28.4509091,7.85541818 L33.1636364,7.85541818 L33.1636364,44.5099636 L12.2181818,44.5099636 L12.2181818,35.7826909 L3.49090909,35.7826909 L3.49090909,7.85541818 L8.17047273,7.85541818 C7.98807273,8.60858182 7.85454545,9.60087273 7.85454545,9.60087273 L28.8,9.60087273 L28.4509091,7.85541818 Z M17.0199273,2.63563636 L17.0199273,2.60509091 C17.0199273,2.55447273 17.0286545,2.50647273 17.0347636,2.45672727 C17.0408727,2.41570909 17.0426182,2.37469091 17.0522182,2.33454545 L17.0513455,2.33454545 C17.1822545,1.74894545 17.7041455,1.30909091 18.3281455,1.30909091 C19.0376727,1.30909091 19.6128,1.87549091 19.6337455,2.57978182 L19.632,2.58676364 L19.6346182,2.64261818 C19.6197818,3.35389091 19.0402909,3.92814545 18.3272727,3.92814545 C17.6116364,3.92814545 17.0286545,3.34952727 17.0199273,2.63563636 Z M14.8363636,6.98269091 L14.8363636,5.23723636 L15.1522909,5.23723636 L15.3521455,5.23723636 L15.6139636,4.93352727 C15.8164364,4.69789091 15.9936,4.53294545 16.1480727,4.38807273 C16.3008,4.24581818 16.4544,4.10181818 16.5905455,3.92465455 C16.9893818,4.45265455 17.616,4.80087273 18.3272727,4.80087273 C19.0376727,4.80087273 19.6651636,4.4544 20.0631273,3.9264 C20.1984,4.10094545 20.3537455,4.24494545 20.5064727,4.38807273 C20.6618182,4.53294545 20.8381091,4.69789091 21.0405818,4.93352727 L21.3024,5.23723636 L21.5022545,5.23723636 L21.8181818,5.23723636 L21.8181818,6.98269091 L26.1818182,6.98269091 C26.8250182,6.98269091 27.3931636,7.37716364 27.5214545,7.65905455 L27.7352727,8.72814545 L8.87825455,8.72814545 C8.94807273,8.34589091 9.0336,7.95229091 9.11825455,7.69483636 C9.21250909,7.41207273 9.8016,6.98269091 10.4727273,6.98269091 L14.8363636,6.98269091 Z" id="Shape"></path>
                <path d="M34.9090909,4.36450909 L23.5636364,4.36450909 L23.5636364,5.23723636 L34.9090909,5.23723636 C35.3908364,5.23723636 35.7818182,5.62909091 35.7818182,6.10996364 L35.7818182,45.3826909 C35.7818182,45.8635636 35.3908364,46.2554182 34.9090909,46.2554182 L1.74545455,46.2554182 C1.26370909,46.2554182 0.872727273,45.8635636 0.872727273,45.3826909 L0.872727273,6.10996364 C0.872727273,5.62909091 1.26370909,5.23723636 1.74545455,5.23723636 L13.0909091,5.23723636 L13.0909091,4.36450909 L1.74545455,4.36450909 C0.785454545,4.36450909 0,5.14996364 0,6.10996364 L0,45.3826909 C0,46.3426909 0.785454545,47.1281455 1.74545455,47.1281455 L34.9090909,47.1281455 C35.8690909,47.1281455 36.6545455,46.3426909 36.6545455,45.3826909 L36.6545455,6.10996364 C36.6545455,5.14996364 35.8690909,4.36450909 34.9090909,4.36450909 Z" id="Shape"></path>
            </g>
        </g>
    </g>
</svg>