<?xml version="1.0" encoding="UTF-8"?>
<svg width="54px" height="48px" viewBox="0 0 54 48" version="1.1" xmlns="http://www.w3.org/2000/svg" xmlns:xlink="http://www.w3.org/1999/xlink">
    <!-- Generator: Sketch 50.2 (55047) - http://www.bohemiancoding.com/sketch -->
    <title>Group 11</title>
    <desc>Created with Sketch.</desc>
    <defs></defs>
    <g id="Page-1" stroke="none" stroke-width="1" fill="none" fill-rule="evenodd">
        <g id="Artboard-Copy" transform="translate(-1419.000000, -880.000000)" fill="#FFFFFF" fill-rule="nonzero">
            <g id="Group-11" transform="translate(1419.000000, 880.000000)">
                <path d="M27.4755556,24.9232593 C24.6174815,24.9232593 22.2921481,27.2485926 22.2921481,30.1060741 C22.2921481,32.9647407 24.6174815,35.2912593 27.4755556,35.2912593 C30.3342222,35.2912593 32.6607407,32.9647407 32.6607407,30.1060741 C32.6607407,27.248 30.3342222,24.9232593 27.4755556,24.9232593 Z M27.4755556,32.3128889 C26.258963,32.3128889 25.2705185,31.3220741 25.2705185,30.1054815 C25.2705185,28.8900741 26.258963,27.9004444 27.4755556,27.9004444 C28.6921481,27.9004444 29.682963,28.8900741 29.682963,30.1054815 C29.682963,31.3220741 28.6921481,32.3128889 27.4755556,32.3128889 Z" id="Shape"></path>
                <path d="M39.8820741,26.4485926 L36.8426667,21.1857778 C36.6459259,20.8432593 36.3194074,20.5943704 35.938963,20.4924444 C35.5567407,20.3893333 35.1508148,20.4438519 34.8082963,20.6417778 L32.7087407,21.856 C32.4794074,21.7102222 32.2447407,21.5745185 32.0047407,21.4494815 L32.0047407,19.021037 C32.0047407,18.1979259 31.3380741,17.5312593 30.514963,17.5312593 L24.434963,17.5312593 C23.613037,17.5312593 22.9463704,18.1979259 22.9463704,19.021037 L22.9463704,21.4494815 C22.7401481,21.5585185 22.5368889,21.6740741 22.3377778,21.7979259 L20.2488889,20.5582222 C19.9087407,20.3567407 19.5034074,20.2980741 19.1205926,20.3964444 C18.7377778,20.4948148 18.4100741,20.7401481 18.2085926,21.0802963 L15.1122963,26.3087407 C14.6933333,27.0145185 14.9268148,27.9277037 15.6331852,28.3466667 L17.7191111,29.5851852 C17.7072593,29.7635556 17.7031111,29.936 17.7031111,30.1060741 C17.7031111,30.2405926 17.7066667,30.3768889 17.7137778,30.5155556 L15.6106667,31.7297778 C15.2693333,31.9277037 15.0192593,32.253037 14.9173333,32.6346667 C14.8154074,33.0157037 14.8687407,33.4228148 15.0666667,33.7641481 L18.1060741,39.0234074 C18.5179259,39.7362963 19.4287407,39.9792593 20.1398519,39.5685926 L22.2441481,38.3543704 C22.4722963,38.498963 22.706963,38.6346667 22.9481481,38.7608889 L22.9481481,41.1905185 C22.9481481,42.0124444 23.6148148,42.6791111 24.4367407,42.6791111 L30.5167407,42.6791111 C31.3398519,42.6791111 32.0065185,42.0124444 32.0065185,41.1905185 L32.0065185,38.7608889 C32.2139259,38.6518519 32.4148148,38.5362963 32.6127407,38.4148148 L34.704,39.6521481 C35.410963,40.0687407 36.3241481,39.8364444 36.7431111,39.1288889 L39.8405926,33.8998519 C40.2607407,33.1928889 40.0266667,32.2808889 39.3197037,31.8607407 L37.2361481,30.6257778 C37.248,30.4474074 37.2533333,30.274963 37.2533333,30.1060741 C37.2533333,29.9703704 37.2497778,29.8340741 37.2414815,29.6942222 L39.3386667,28.4823704 C40.0497778,28.0699259 40.2927407,27.1602963 39.8820741,26.4485926 Z M34.1884444,29.1081481 C34.2465185,29.4968889 34.2743704,29.8139259 34.2743704,30.1060741 C34.2743704,30.4278519 34.2441481,30.7703704 34.1783704,31.1857778 C34.0847407,31.7878519 34.3656296,32.3857778 34.8900741,32.6974815 L36.5197037,33.6628148 L34.9386667,36.3318519 L33.3066667,35.3665185 C32.7798519,35.0554074 32.1167407,35.0980741 31.6343704,35.4731852 C31.133037,35.8631111 30.5718519,36.1837037 29.9644444,36.4254815 C29.3985185,36.6512593 29.026963,37.1988148 29.026963,37.8085926 L29.026963,39.7007407 L25.9247407,39.7007407 L25.9247407,37.8085926 C25.9247407,37.1988148 25.5531852,36.6500741 24.9860741,36.4254815 C24.3555556,36.173037 23.7718519,35.8364444 23.2545185,35.4234074 C22.7751111,35.0423704 22.1108148,34.9914074 21.5822222,35.2983704 L19.9401481,36.2465185 L18.3893333,33.5638519 L20.0337778,32.6145185 C20.5617778,32.3087407 20.8497778,31.7131852 20.7620741,31.1087407 C20.7075556,30.7348148 20.6808889,30.4071111 20.6808889,30.1066667 C20.6808889,29.7872593 20.7099259,29.4411852 20.7745185,29.0174815 C20.8645926,28.4177778 20.5837037,27.824 20.0628148,27.5152593 L18.432,26.5463704 L20.0118519,23.8814815 L21.6402963,24.8474074 C22.1671111,25.1585185 22.829037,25.1194074 23.3125926,24.7431111 C23.8299259,24.3431111 24.3922963,24.0213333 24.9813333,23.789037 C25.5508148,23.5644444 25.9247407,23.0145185 25.9247407,22.4023704 L25.9247407,20.5096296 L29.026963,20.5096296 L29.026963,22.4017778 C29.026963,23.0127407 29.3997037,23.5638519 29.9691852,23.7884444 C30.5896296,24.0337778 31.1739259,24.3703704 31.7042963,24.7899259 C32.1837037,25.1674074 32.8444444,25.216 33.373037,24.9102222 L35.0097778,23.965037 L36.5594074,26.6482963 L34.9161481,27.5988148 C34.3863704,27.9057778 34.0983704,28.5042963 34.1884444,29.1081481 Z" id="Shape"></path>
                <path d="M15.901037,9.30725926 L16.0041481,9.30725926 C16.8272593,9.30725926 17.4939259,8.64059259 17.4939259,7.81748148 C17.4939259,6.99555556 16.8272593,6.32888889 16.0041481,6.32888889 L15.901037,6.32888889 C15.0779259,6.32888889 14.4112593,6.99555556 14.4112593,7.81748148 C14.4118519,8.64059259 15.0785185,9.30725926 15.901037,9.30725926 Z" id="Shape"></path>
                <path d="M9.15377778,9.30725926 L9.25807407,9.30725926 C10.08,9.30725926 10.7466667,8.64059259 10.7466667,7.81748148 C10.7466667,6.99555556 10.08,6.32888889 9.25807407,6.32888889 L9.15377778,6.32888889 C8.33185185,6.32888889 7.66518519,6.99555556 7.66518519,7.81748148 C7.66518519,8.64059259 8.33185185,9.30725926 9.15377778,9.30725926 Z" id="Shape"></path>
                <path d="M22.6488889,9.30725926 L22.752,9.30725926 C23.5751111,9.30725926 24.2417778,8.64059259 24.2417778,7.81748148 C24.2417778,6.99555556 23.5751111,6.32888889 22.752,6.32888889 L22.6488889,6.32888889 C21.8257778,6.32888889 21.1591111,6.99555556 21.1591111,7.81748148 C21.1597037,8.64059259 21.8263704,9.30725926 22.6488889,9.30725926 Z" id="Shape"></path>
                <path d="M0.167703704,46.4391111 C0.167703704,47.2622222 0.83437037,47.9288889 1.6562963,47.9288889 L47.554963,47.9288889 C50.9718519,47.9288889 53.7505185,45.149037 53.7505185,41.7321481 L53.7505185,13.7724444 L53.7505185,13.7700741 L53.7505185,1.86488889 C53.7505185,1.04296296 53.0838519,0.376296296 52.2619259,0.376296296 L1.65451852,0.376296296 C0.832592593,0.376296296 0.165925926,1.04296296 0.165925926,1.86488889 L0.165925926,13.7724444 C0.165925926,13.7771852 0.167111111,13.7807407 0.167111111,13.7842963 L0.167111111,46.4391111 L0.167703704,46.4391111 Z M47.5543704,44.9505185 L3.14548148,44.9505185 L3.14548148,15.2616296 L50.7721481,15.2616296 L50.7721481,41.7315556 C50.7721481,43.5063704 49.3285926,44.9505185 47.5543704,44.9505185 Z M50.7721481,3.35466667 L50.7721481,12.2814815 L3.1442963,12.2814815 L3.1442963,3.35466667 L50.7721481,3.35466667 Z" id="Shape"></path>
            </g>
        </g>
    </g>
</svg>