<?xml version="1.0" encoding="UTF-8"?>
<svg width="48px" height="48px" viewBox="0 0 48 48" version="1.1" xmlns="http://www.w3.org/2000/svg" xmlns:xlink="http://www.w3.org/1999/xlink">
    <!-- Generator: Sketch 51.3 (57544) - http://www.bohemiancoding.com/sketch -->
    <title>icon-vehicle</title>
    <desc>Created with Sketch.</desc>
    <defs></defs>
    <g id="Page-1" stroke="none" stroke-width="1" fill="none" fill-rule="evenodd">
        <g id="Artboard-Copy" transform="translate(-184.000000, -1139.000000)" fill="#51B6C7" fill-rule="nonzero">
            <g id="icon-vehicle" transform="translate(184.000000, 1139.000000)">
                <path d="M44.5482488,34.6591778 L3.47586603,34.6591778 C3.14422967,34.6591778 2.8757512,34.9224022 2.8757512,35.2469329 L2.8757512,39.3692053 C2.8757512,39.6944111 3.14491866,39.957073 3.47586603,39.957073 L44.5482488,39.957073 C44.8795407,39.957073 45.1483636,39.6937362 45.1483636,39.3692053 L45.1483636,35.2469329 C45.1483636,34.9224022 44.8795407,34.6591778 44.5482488,34.6591778 Z M9.78683254,38.9298232 L4.25776077,38.9298232 C3.92486124,38.9298232 3.65638278,38.6663739 3.65638278,38.3413932 L3.65638278,36.2763199 C3.65638278,35.9505517 3.92543541,35.6878899 4.25776077,35.6878899 L10.387866,38.3415057 C10.387866,38.6663739 10.1197321,38.9298232 9.78683254,38.9298232 Z M43.826067,38.3412807 C43.826067,38.6670489 43.557244,38.9297108 43.224689,38.9297108 L37.6957321,38.9297108 C37.3644402,38.9297108 37.0950431,38.6662615 37.0950431,38.3412807 L43.2248038,35.6876649 C43.5580478,35.6876649 43.8261818,35.9510017 43.8261818,36.2760949 L43.8261818,38.3412807 L43.826067,38.3412807 Z" id="Shape"></path>
                <path d="M6.03915789,47.0034973 C6.03915789,47.4477164 6.40673684,47.8080187 6.86078469,47.8080187 L11.3514258,47.8080187 C11.8044402,47.8080187 12.1727081,47.4477164 12.1727081,47.0034973 L12.1727081,40.6671036 L6.03984689,40.6671036 L6.03984689,47.0034973 L6.03915789,47.0034973 Z" id="Shape"></path>
                <path d="M36.1073684,47.0034973 C36.1073684,47.4477164 36.475177,47.8080187 36.9285359,47.8080187 L41.4190622,47.8080187 C41.8725359,47.8080187 42.2403445,47.4477164 42.2403445,47.0034973 L42.2403445,40.6671036 L36.1072536,40.6671036 L36.1072536,47.0034973 L36.1073684,47.0034973 Z" id="Shape"></path>
                <path d="M45.8881148,0.522361489 L2.1356555,0.522361489 C1.00891866,0.522361489 0.0916363636,1.16258392 0.0916363636,1.95006873 L0.0916363636,29.9724328 C0.0916363636,30.7599176 1.00891866,31.3999796 2.1356555,31.3999796 L4.71927273,31.3999796 L4.71927273,33.4533114 L43.1771483,33.4533114 C43.220555,33.4533114 43.2612057,33.458926 43.3047273,33.4622947 L43.3047273,31.4009421 L45.888,31.4009421 C47.0147368,31.4009421 47.9324785,30.7604791 47.9324785,29.9729942 L47.9324785,1.95006873 C47.9325933,1.16258392 47.0147368,0.522361489 45.8881148,0.522361489 Z M16.4735311,30.6325211 C16.4735311,31.324666 15.9009761,31.8845238 15.196134,31.8845238 L9.19027751,31.8845238 C8.48440191,31.8845238 7.91288038,31.324666 7.91288038,30.6325211 L7.91288038,28.8186357 C7.91288038,28.1271657 8.48440191,27.565958 9.19027751,27.565958 L15.196134,27.565958 C15.9009761,27.565958 16.4735311,28.1270532 16.4735311,28.8186357 L16.4735311,30.6325211 Z M39.7276938,30.6325211 C39.7276938,31.324666 39.1549091,31.8845238 38.4502967,31.8845238 L32.4440957,31.8845238 C31.7382201,31.8845238 31.1666986,31.324666 31.1666986,30.6325211 L31.1666986,28.8186357 C31.1666986,28.1271657 31.7382201,27.565958 32.4440957,27.565958 L38.4502967,27.565958 C39.1549091,27.565958 39.7276938,28.1270532 39.7276938,28.8186357 L39.7276938,30.6325211 Z M40.1105455,19.4316524 C40.1105455,20.1225599 39.5390239,20.6829802 38.8331483,20.6829802 L8.93603828,20.6829802 C8.22981818,20.6829802 7.65864115,20.1225599 7.65864115,19.4316524 L7.65864115,8.54271576 C7.65864115,7.85090831 8.22981818,7.29071304 8.93603828,7.29071304 L38.8338373,7.29071304 C39.5397129,7.29071304 40.1112344,7.85090831 40.1112344,8.54271576 L40.1112344,19.4316524 L40.1105455,19.4316524 Z M46.3985455,28.7383166 C46.3985455,28.9203533 46.16911,29.0686246 45.8881148,29.0686246 L43.3048421,29.0686246 L43.3048421,13.6284544 C43.3048421,13.172064 42.7332057,12.8029443 42.027445,12.8029443 L5.99666986,12.8029443 C5.29044976,12.8029443 4.71927273,13.172064 4.71927273,13.6284544 L4.71927273,29.0686988 L2.1356555,29.0686988 C1.85500478,29.0686988 1.62556938,28.9204275 1.62556938,28.7389103 L1.62556938,2.81163046 C1.62556938,2.62981639 1.85500478,2.48154516 2.1356555,2.48154516 L45.8881148,2.48154516 C46.1684211,2.48154516 46.3978565,2.62981639 46.3978565,2.81163046 L46.3978565,28.7383166 L46.3985455,28.7383166 Z" id="Shape"></path>
            </g>
        </g>
    </g>
</svg>