<?xml version="1.0" encoding="UTF-8"?>
<svg width="48px" height="48px" viewBox="0 0 48 48" version="1.1" xmlns="http://www.w3.org/2000/svg" xmlns:xlink="http://www.w3.org/1999/xlink">
    <!-- Generator: Sketch 50.2 (55047) - http://www.bohemiancoding.com/sketch -->
    <title>helmet copy 2</title>
    <desc>Created with Sketch.</desc>
    <defs></defs>
    <g id="Page-1" stroke="none" stroke-width="1" fill="none" fill-rule="evenodd">
        <g id="Artboard-Copy" transform="translate(-1075.000000, -1939.000000)" fill="#51B6C7" fill-rule="nonzero">
            <g id="helmet-copy-2" transform="translate(1075.000000, 1939.000000)">
                <path d="M3.09677419,29.4193548 L44.9032258,29.4193548 C46.6110968,29.4193548 48,28.0304516 48,26.3225806 C48,25.1752258 47.3659355,24.1834839 46.4369032,23.6485161 C46.2828387,13.7504516 39.6797419,5.1483871 30.1935484,2.43174194 L30.1935484,2.32258065 C30.1935484,1.04206452 29.1514839,0 27.8709677,0 L20.1290323,0 C18.8485161,0 17.8064516,1.04206452 17.8064516,2.32258065 L17.8064516,2.43174194 C8.32025806,5.1483871 1.71716129,13.7504516 1.56309677,23.6485161 C0.634064516,24.1834839 0,25.1752258 0,26.3225806 C0,28.0304516 1.38890323,29.4193548 3.09677419,29.4193548 Z M3.09677419,24.7741935 L41.8064516,24.7741935 L41.8064516,23.2258065 L3.12929032,23.2258065 C3.41496774,15.4769032 7.93703226,8.64154839 14.7096774,5.28464516 L14.7096774,18.5806452 L16.2580645,18.5806452 L16.2580645,4.59483871 C16.7643871,4.39354839 17.28,4.2116129 17.8064516,4.04825806 L17.8064516,21.6774194 L19.3548387,21.6774194 L19.3548387,2.32258065 C19.3548387,1.896 19.7024516,1.5483871 20.1290323,1.5483871 L27.8709677,1.5483871 C28.2975484,1.5483871 28.6451613,1.896 28.6451613,2.32258065 L28.6451613,21.6774194 L30.1935484,21.6774194 L30.1935484,4.04825806 C30.72,4.2116129 31.2356129,4.39354839 31.7419355,4.59483871 L31.7419355,18.5806452 L33.2903226,18.5806452 L33.2903226,5.28464516 C40.0629677,8.64154839 44.5850323,15.4769032 44.8707097,23.2258065 L43.3548387,23.2258065 L43.3548387,24.7741935 L44.9032258,24.7741935 C45.7571613,24.7741935 46.4516129,25.4686452 46.4516129,26.3225806 C46.4516129,27.1765161 45.7571613,27.8709677 44.9032258,27.8709677 L3.09677419,27.8709677 C2.24283871,27.8709677 1.5483871,27.1765161 1.5483871,26.3225806 C1.5483871,25.4686452 2.24283871,24.7741935 3.09677419,24.7741935 Z" id="Shape"></path>
                <rect id="Rectangle-path" x="31.7419355" y="20.1290323" width="1.5483871" height="1.5483871"></rect>
                <rect id="Rectangle-path" x="14.7096774" y="20.1290323" width="1.5483871" height="1.5483871"></rect>
                <path d="M39.483871,30.9677419 L8.51612903,30.9677419 C6.36,30.9677419 4.49883871,32.2366452 3.62709677,34.0645161 L0,34.0645161 L0,44.9032258 L3.62709677,44.9032258 C4.49883871,46.7310968 6.36,48 8.51612903,48 L17.0322581,48 C18.7594839,48 20.3132903,47.04 21.0859355,45.4947097 L21.3305806,45.0046452 C21.84,43.9865806 22.8627097,43.3548387 24,43.3548387 C25.1372903,43.3548387 26.16,43.9865806 26.6686452,45.0046452 L26.9132903,45.4947097 C27.6867097,47.04 29.2405161,48 30.9677419,48 L39.483871,48 C41.64,48 43.5011613,46.7310968 44.3729032,44.9032258 L48,44.9032258 L48,34.0645161 L44.3729032,34.0645161 C43.5011613,32.2366452 41.64,30.9677419 39.483871,30.9677419 Z M1.5483871,43.3548387 L1.5483871,38.7096774 L3.09677419,38.7096774 L3.09677419,42.5806452 C3.09677419,42.843871 3.12232258,43.1009032 3.15870968,43.3548387 L1.5483871,43.3548387 Z M3.09677419,36.3870968 L3.09677419,37.1612903 L1.5483871,37.1612903 L1.5483871,35.6129032 L3.15870968,35.6129032 C3.12232258,35.8668387 3.09677419,36.123871 3.09677419,36.3870968 Z M43.3548387,42.5806452 C43.3548387,44.7150968 41.6183226,46.4516129 39.483871,46.4516129 L30.9677419,46.4516129 C29.8304516,46.4516129 28.8077419,45.819871 28.2990968,44.8018065 L28.0544516,44.3117419 C27.2810323,42.7664516 25.7272258,41.8064516 24,41.8064516 C22.2727742,41.8064516 20.7189677,42.7664516 19.9463226,44.3117419 L19.7016774,44.8018065 C19.1922581,45.819871 18.1695484,46.4516129 17.0322581,46.4516129 L8.51612903,46.4516129 C6.38167742,46.4516129 4.64516129,44.7150968 4.64516129,42.5806452 L4.64516129,36.3870968 C4.64516129,34.2526452 6.38167742,32.516129 8.51612903,32.516129 L39.483871,32.516129 C41.6183226,32.516129 43.3548387,34.2526452 43.3548387,36.3870968 L43.3548387,42.5806452 Z M46.4516129,35.6129032 L46.4516129,37.1612903 L44.9032258,37.1612903 L44.9032258,36.3870968 C44.9032258,36.123871 44.8776774,35.8668387 44.8412903,35.6129032 L46.4516129,35.6129032 Z M44.9032258,42.5806452 L44.9032258,38.7096774 L46.4516129,38.7096774 L46.4516129,43.3548387 L44.8412903,43.3548387 C44.8776774,43.1009032 44.9032258,42.843871 44.9032258,42.5806452 Z" id="Shape"></path>
                <rect id="Rectangle-path" x="21.6774194" y="34.0645161" width="1.5483871" height="1.5483871"></rect>
                <path d="M6.19354839,36.3870968 L6.19354839,41.8064516 L7.74193548,41.8064516 L7.74193548,36.3870968 C7.74193548,35.9597419 8.08954839,35.6129032 8.51612903,35.6129032 L20.1290323,35.6129032 L20.1290323,34.0645161 L8.51612903,34.0645161 C7.2356129,34.0645161 6.19354839,35.1065806 6.19354839,36.3870968 Z" id="Shape"></path>
            </g>
        </g>
    </g>
</svg>