<?xml version="1.0" encoding="UTF-8"?>
<svg width="48px" height="48px" viewBox="0 0 48 48" version="1.1" xmlns="http://www.w3.org/2000/svg" xmlns:xlink="http://www.w3.org/1999/xlink">
    <!-- Generator: Sketch 50.2 (55047) - http://www.bohemiancoding.com/sketch -->
    <title>megaphone</title>
    <desc>Created with Sketch.</desc>
    <defs></defs>
    <g id="Page-1" stroke="none" stroke-width="1" fill="none" fill-rule="evenodd">
        <g id="Artboard-Copy" transform="translate(-839.000000, -880.000000)" fill="#FFFFFF" fill-rule="nonzero">
            <g id="megaphone" transform="translate(839.000000, 880.000000)">
                <path d="M43.0783482,29.0852794 L18.528,4.06309312 L5.07634008,36.0548016 L0.0159352227,38.6331984 L9.17363563,47.9681296 L11.7170526,42.7841296 L13.0455061,42.2034656 C13.9619757,43.6345263 15.5150769,44.4631579 17.141247,44.4631579 C17.7778785,44.4631579 18.42617,44.3364534 19.0503644,44.06983 L28.3705263,40.0868016 C30.6395466,39.115919 31.8070931,36.6160324 31.2171012,34.26617 L43.0783482,29.0852794 Z M8.74532794,45.3112227 L2.60832389,39.0568421 L5.52641296,37.5705911 L10.2035951,42.3379433 L8.74532794,45.3112227 Z M27.7595466,38.6565182 L18.4393846,42.6395466 C17.0122105,43.2505263 15.406251,42.7755789 14.4991093,41.5683887 L29.7619433,34.9020243 C30.0285668,36.4457976 29.2364696,38.0253279 27.7595466,38.6565182 Z M11.324502,41.2590121 L6.59990283,36.4426883 L17.7444534,9.936583 L33.6944453,26.1936194 L34.8044696,25.1053603 L18.3974089,8.38348178 L19.0550283,6.81949798 L40.3887935,28.562915 L38.8543482,29.2329717 L35.9619109,26.2853441 L34.8518866,27.3736032 L37.3292308,29.8983644 L11.324502,41.2590121 Z" id="Shape"></path>
                <rect id="Rectangle-path" x="32.4056356" y="0" width="1.55465587" height="4.66396761"></rect>
                <rect id="Rectangle-path" transform="translate(24.388252, 5.974833) rotate(-45.000000) translate(-24.388252, -5.974833) " x="23.610932" y="3.64326057" width="1.55464096" height="4.66314556"></rect>
                <rect id="Rectangle-path" transform="translate(41.974511, 23.562557) rotate(-45.000000) translate(-41.974511, -23.562557) " x="41.1971901" y="21.2309845" width="1.55464096" height="4.66314556"></rect>
                <rect id="Rectangle-path" x="43.2882267" y="13.9919028" width="4.66396761" height="1.55465587"></rect>
                <rect id="Rectangle-path" transform="translate(41.975790, 5.978077) rotate(-45.000000) translate(-41.975790, -5.978077) " x="39.6442168" y="5.20075671" width="4.66314556" height="1.55464096"></rect>
            </g>
        </g>
    </g>
</svg>