<?xml version="1.0" encoding="UTF-8"?>
<svg width="28px" height="48px" viewBox="0 0 28 48" version="1.1" xmlns="http://www.w3.org/2000/svg" xmlns:xlink="http://www.w3.org/1999/xlink">
    <!-- Generator: Sketch 50.2 (55047) - http://www.bohemiancoding.com/sketch -->
    <title>hemoglobin</title>
    <desc>Created with Sketch.</desc>
    <defs></defs>
    <g id="Page-1" stroke="none" stroke-width="1" fill="none" fill-rule="evenodd">
        <g id="Artboard-Copy" transform="translate(-459.000000, -880.000000)" fill="#FFFFFF" fill-rule="nonzero">
            <g id="hemoglobin" transform="translate(459.000000, 880.000000)">
                <path d="M21.1854375,0 L6.56475,0 C2.97234375,0 0.04959375,2.92265625 0.04959375,6.51515625 L0.04959375,36.645 C0.04959375,38.2178438 0.61771875,39.7365937 1.6494375,40.9215937 C2.53190625,41.9350313 3.70171875,42.6469687 4.99134375,42.9675938 L4.99134375,47.04375 C4.99134375,47.57175 5.41940625,47.9999063 5.9475,47.9999063 L21.8025,47.9999063 C22.3305937,47.9999063 22.7586563,47.57175 22.7586563,47.04375 L22.7586563,42.9675938 C24.048375,42.646875 25.2180938,41.9349375 26.1005625,40.9215937 C27.1322812,39.7365938 27.7004063,38.2179375 27.7004063,36.645 L27.7004063,6.51515625 C27.7005938,2.92265625 24.7778438,0 21.1854375,0 Z M6.90365625,46.0876875 L6.90365625,32.0507812 L20.8463437,32.0507812 L20.8463437,46.0876875 L6.90365625,46.0876875 Z M25.7881875,36.645 C25.7881875,38.5970625 24.5357813,40.318875 22.75875,40.969875 L22.75875,31.094625 C22.75875,30.566625 22.3306875,30.1384687 21.8025937,30.1384687 L5.9475,30.1384687 C5.41940625,30.1384687 4.99134375,30.566625 4.99134375,31.094625 L4.99134375,40.969875 C3.2143125,40.318875 1.96190625,38.5970625 1.96190625,36.645 L1.96190625,6.51515625 C1.96190625,3.97715625 4.02675,1.9123125 6.56475,1.9123125 L21.1854375,1.9123125 C23.7234375,1.9123125 25.7882812,3.97715625 25.7882812,6.51515625 L25.7882812,36.645 L25.7881875,36.645 Z" id="Shape"></path>
                <path d="M21.8025937,5.16965625 L5.9475,5.16965625 C5.41940625,5.16965625 4.99134375,5.5978125 4.99134375,6.1258125 L4.99134375,17.4553125 C4.99134375,17.9833125 5.41940625,18.4114688 5.9475,18.4114688 L21.8025,18.4114688 C22.3305938,18.4114688 22.7586563,17.9833125 22.7586563,17.4553125 L22.7586563,6.1258125 C22.75875,5.5978125 22.3306875,5.16965625 21.8025937,5.16965625 Z M6.90365625,16.4991563 L6.90365625,7.08196875 L20.8463437,7.08196875 L20.8463437,16.4991563 L6.90365625,16.4991563 Z" id="Shape"></path>
                <path d="M7.99040625,20.5689375 C7.34184375,20.5689375 6.81421875,21.0966562 6.81421875,21.745125 C6.81421875,22.3935938 7.34184375,22.9213125 7.99040625,22.9213125 C8.638875,22.9213125 9.1665,22.3935938 9.1665,21.745125 C9.1665,21.0966562 8.638875,20.5689375 7.99040625,20.5689375 Z" id="Shape"></path>
                <path d="M19.7597813,20.5689375 C19.1113125,20.5689375 18.5836875,21.0966562 18.5836875,21.745125 C18.5836875,22.3935938 19.1113125,22.9213125 19.7597813,22.9213125 C20.4083438,22.9213125 20.9359688,22.3935938 20.9359688,21.745125 C20.9359688,21.0966562 20.4083438,20.5689375 19.7597813,20.5689375 Z" id="Shape"></path>
                <path d="M13.8750937,20.5689375 C13.2265312,20.5689375 12.6989063,21.0966562 12.6989063,21.745125 C12.6989063,22.3935938 13.2265312,22.9213125 13.8750937,22.9213125 C14.5236563,22.9213125 15.0512812,22.3935938 15.0512812,21.745125 C15.0512812,21.0966562 14.5236563,20.5689375 13.8750937,20.5689375 Z" id="Shape"></path>
                <path d="M17.6149687,33.9883125 L10.1353125,33.9883125 C9.60721875,33.9883125 9.17915625,34.4164687 9.17915625,34.9444687 C9.17915625,35.4724687 9.60721875,35.900625 10.1353125,35.900625 L17.6149687,35.900625 C18.1430625,35.900625 18.571125,35.4724687 18.571125,34.9444687 C18.571125,34.4164687 18.1430625,33.9883125 17.6149687,33.9883125 Z" id="Shape"></path>
                <path d="M17.6149687,38.1680625 L10.1353125,38.1680625 C9.60721875,38.1680625 9.17915625,38.5962187 9.17915625,39.1242188 C9.17915625,39.6522188 9.60721875,40.080375 10.1353125,40.080375 L17.6149687,40.080375 C18.1430625,40.080375 18.571125,39.6522188 18.571125,39.1242188 C18.571125,38.5962187 18.1430625,38.1680625 17.6149687,38.1680625 Z" id="Shape"></path>
                <path d="M17.614875,42.3479063 L14.535,42.3479063 C14.0069063,42.3479063 13.5788438,42.7760625 13.5788438,43.3040625 C13.5788438,43.8320625 14.0069062,44.2602188 14.535,44.2602188 L17.614875,44.2602188 C18.1429687,44.2602188 18.5710313,43.8320625 18.5710313,43.3040625 C18.5710313,42.7760625 18.1429687,42.3479063 17.614875,42.3479063 Z" id="Shape"></path>
                <path d="M10.7952188,42.3479063 L10.1353125,42.3479063 C9.60721875,42.3479063 9.17915625,42.7760625 9.17915625,43.3040625 C9.17915625,43.8320625 9.60721875,44.2602188 10.1353125,44.2602188 L10.7952188,44.2602188 C11.3233125,44.2602188 11.751375,43.8320625 11.751375,43.3040625 C11.751375,42.7760625 11.3233125,42.3479063 10.7952188,42.3479063 Z" id="Shape"></path>
            </g>
        </g>
    </g>
</svg>