<?xml version="1.0" encoding="UTF-8"?>
<svg width="50px" height="48px" viewBox="0 0 50 48" version="1.1" xmlns="http://www.w3.org/2000/svg" xmlns:xlink="http://www.w3.org/1999/xlink">
    <!-- Generator: Sketch 50.2 (55047) - http://www.bohemiancoding.com/sketch -->
    <title>map (1)</title>
    <desc>Created with Sketch.</desc>
    <defs></defs>
    <g id="Page-1" stroke="none" stroke-width="1" fill="none" fill-rule="evenodd">
        <g id="Artboard-Copy" transform="translate(-631.000000, -873.000000)" fill="#FFFFFF" fill-rule="nonzero">
            <g id="map-(1)" transform="translate(631.000000, 873.000000)">
                <path d="M49.3993846,0.132 C49.1224615,-0.036 48.7772308,-0.0433846154 48.492,0.107076923 L33.2307692,8.18676923 L17.9704615,0.107076923 C17.9584615,0.100615385 17.9446154,0.0987692308 17.9326154,0.0932307692 C17.8883077,0.072 17.8430769,0.0563076923 17.7969231,0.0424615385 C17.7710769,0.0350769231 17.7461538,0.0267692308 17.7203077,0.0212307692 C17.6695385,0.0110769231 17.6178462,0.00738461538 17.5652308,0.00553846154 C17.5421538,0.00461538462 17.5190769,0.00184615385 17.4950769,0.00276923077 C17.4452308,0.00553846154 17.3963077,0.0147692308 17.3473846,0.0258461538 C17.3196923,0.0313846154 17.292,0.0350769231 17.2652308,0.0433846154 C17.2587692,0.0452307692 17.2523077,0.0452307692 17.2467692,0.0470769231 L0.631384615,5.58553846 C0.253846154,5.71107692 0,6.06369231 0,6.46153846 L0,46.1538462 C0,46.4501538 0.142153846,46.7289231 0.384,46.9033846 C0.542769231,47.0169231 0.732,47.0769231 0.923076923,47.0769231 C1.02092308,47.0769231 1.11969231,47.0612308 1.21476923,47.0289231 L17.5033846,41.5993846 L32.8790769,47.9307692 C32.892,47.9363077 32.9067692,47.9344615 32.9196923,47.9390769 C33.0212308,47.9750769 33.1246154,48 33.2307692,48 C33.3138462,48 33.396,47.9861538 33.4763077,47.964 C33.5021538,47.9566154 33.5261538,47.9446154 33.552,47.9353846 C33.5889231,47.9215385 33.6276923,47.9113846 33.6627692,47.8929231 L49.3550769,39.5852308 C49.6569231,39.4255385 49.8461538,39.1107692 49.8461538,38.7692308 L49.8461538,0.923076923 C49.8461538,0.599076923 49.6763077,0.299076923 49.3993846,0.132 Z M1.84615385,7.12707692 L16.6153846,2.20430769 L16.6153846,27.12 C16.2184615,27.192 15.8270769,27.2732308 15.4486154,27.3729231 C14.9556923,27.504 14.6621538,28.0089231 14.7932308,28.5018462 C14.9030769,28.9153846 15.276,29.1886154 15.6849231,29.1886154 C15.7624615,29.1886154 15.8427692,29.1784615 15.9221538,29.1581538 C16.1436923,29.0990769 16.3855385,29.0695385 16.6153846,29.0215385 L16.6153846,39.9507692 L1.84615385,44.8726154 L1.84615385,7.12707692 Z M18.4615385,28.7630769 C18.7578462,28.74 19.0449231,28.7021538 19.3486154,28.6956923 C19.8581538,28.6846154 20.2624615,28.2627692 20.2523077,27.7532308 C20.2412308,27.2501538 19.8304615,26.8495385 19.3292308,26.8495385 C19.3227692,26.8495385 19.3153846,26.8495385 19.3089231,26.8495385 C19.0227692,26.856 18.7412308,26.8716923 18.4615385,26.8910769 L18.4615385,2.45630769 L32.3076923,9.78646154 L32.3076923,29.3501538 C31.6486154,29.3215385 30.9784615,29.244 30.276,29.1083077 C29.7738462,29.0095385 29.2910769,29.3381538 29.1941538,29.8384615 C29.0972308,30.3387692 29.4249231,30.8233846 29.9252308,30.9203077 C30.7430769,31.0790769 31.5369231,31.1566154 32.3086154,31.1870769 L32.3086154,45.6987692 L18.4615385,39.9969231 L18.4615385,28.7630769 Z M48,38.2126154 L34.1538462,45.5427692 L34.1538462,31.0873846 C34.4972308,30.9313846 34.7261538,30.5806154 34.6956923,30.1827692 C34.6689231,29.8375385 34.4473846,29.5606154 34.1538462,29.4249231 L34.1538462,9.78646154 L48,2.45630769 L48,38.2126154 Z" id="Shape"></path>
                <path d="M10.1538462,7.38461538 C7.60892308,7.38461538 5.53846154,9.45507692 5.53846154,12 C5.53846154,14.2292308 7.12707692,16.0929231 9.23076923,16.5221538 L9.23076923,18.4615385 C9.23076923,18.972 9.64430769,19.3846154 10.1538462,19.3846154 C10.6633846,19.3846154 11.0769231,18.972 11.0769231,18.4615385 L11.0769231,16.5221538 C13.1806154,16.0929231 14.7692308,14.2292308 14.7692308,12 C14.7692308,9.45507692 12.6987692,7.38461538 10.1538462,7.38461538 Z M10.1538462,14.7692308 C8.62707692,14.7692308 7.38461538,13.5267692 7.38461538,12 C7.38461538,10.4732308 8.62707692,9.23076923 10.1538462,9.23076923 C11.6806154,9.23076923 12.9230769,10.4732308 12.9230769,12 C12.9230769,13.5267692 11.6806154,14.7692308 10.1538462,14.7692308 Z" id="Shape"></path>
                <path d="M41.6030769,24.6212308 C41.7138462,24.6646154 41.8273846,24.684 41.9390769,24.684 C42.3083077,24.684 42.6563077,24.4615385 42.7993846,24.0969231 C43.2332308,22.9901538 43.5812308,21.7403077 43.836,20.3824615 C43.9301538,19.8821538 43.5996923,19.4003077 43.0984615,19.3052308 C42.5944615,19.2221538 42.1153846,19.5424615 42.0212308,20.0436923 C41.7886154,21.288 41.472,22.4252308 41.0806154,23.4249231 C40.8950769,23.8984615 41.1286154,24.4347692 41.6030769,24.6212308 Z" id="Shape"></path>
                <path d="M11.82,28.9310769 C10.7058462,29.6298462 9.70153846,30.5049231 8.83384615,31.5341538 C8.50523077,31.9236923 8.55507692,32.5061538 8.94461538,32.8347692 C9.11815385,32.9806154 9.32953846,33.0516923 9.53907692,33.0516923 C9.80215385,33.0516923 10.0624615,32.94 10.2452308,32.724 C10.9892308,31.8415385 11.8486154,31.0910769 12.8003077,30.4956923 C13.2323077,30.2243077 13.3624615,29.6547692 13.092,29.2227692 C12.8215385,28.7907692 12.2510769,28.6596923 11.82,28.9310769 Z" id="Shape"></path>
                <path d="M7.96338462,34.4086154 C7.5,34.1963077 6.95169231,34.3966154 6.73846154,34.86 C5.79138462,36.9147692 5.55692308,38.5735385 5.54676923,38.6436923 C5.47753846,39.1486154 5.83015385,39.6129231 6.33507692,39.6821538 C6.37753846,39.6886154 6.42092308,39.6913846 6.46246154,39.6913846 C6.91569231,39.6913846 7.31076923,39.3572308 7.37630769,38.8966154 C7.37815385,38.8818462 7.58953846,37.4224615 8.41476923,35.6344615 C8.628,35.1701538 8.42584615,34.6227692 7.96338462,34.4086154 Z" id="Shape"></path>
                <path d="M37.3135385,30.2113846 C37.4547692,30.2113846 37.5987692,30.1790769 37.7326154,30.1107692 C38.9252308,29.5006154 39.9766154,28.6347692 40.8563077,27.5390769 C41.1756923,27.1412308 41.112,26.5596923 40.7141538,26.2412308 C40.3172308,25.9246154 39.7356923,25.9864615 39.4163077,26.3833846 C38.7,27.276 37.8507692,27.9766154 36.8916923,28.4667692 C36.4375385,28.6993846 36.2575385,29.2550769 36.4901538,29.7092308 C36.6544615,30.0276923 36.9784615,30.2113846 37.3135385,30.2113846 Z" id="Shape"></path>
                <path d="M26.9261538,28.0910769 C26.5190769,27.9203077 26.2809231,27.8021538 26.2652308,27.7938462 C26.2052308,27.7633846 26.1415385,27.7384615 26.076,27.7218462 C25.0763077,27.4652308 24.0913846,27.2621538 23.1470769,27.1181538 C22.644,27.0387692 22.1723077,27.3867692 22.0947692,27.8907692 C22.0181538,28.3947692 22.3643077,28.8664615 22.8683077,28.9430769 C23.7230769,29.0741538 24.6156923,29.2569231 25.524,29.4876923 C25.6476923,29.5467692 25.884,29.6584615 26.2144615,29.796 C26.3307692,29.8449231 26.4516923,29.8670769 26.5698462,29.8670769 C26.9307692,29.8670769 27.2741538,29.6547692 27.4218462,29.3003077 C27.6184615,28.8276923 27.3969231,28.2867692 26.9261538,28.0910769 Z" id="Shape"></path>
                <path d="M43.3135385,17.4747692 C43.3338462,17.4756923 43.3532308,17.4766154 43.3735385,17.4766154 C43.8563077,17.4766154 44.2624615,17.1018462 44.2938462,16.6116923 C44.3510769,15.7246154 44.3796923,14.7858462 44.3796923,13.824 C44.3796923,13.5036923 44.3769231,13.1787692 44.3704615,12.8473846 C44.3612308,12.3369231 43.9181538,11.9492308 43.4307692,11.9409231 C42.9212308,11.9501538 42.5150769,12.3710769 42.5243077,12.8806154 C42.5298462,13.2009231 42.5335385,13.5156923 42.5335385,13.824 C42.5335385,14.7470769 42.5058462,15.6452308 42.4513846,16.4944615 C42.4190769,17.0030769 42.8049231,17.4415385 43.3135385,17.4747692 Z" id="Shape"></path>
                <path d="M7.65507692,25.5756923 C7.83507692,25.7556923 8.07138462,25.8461538 8.30769231,25.8461538 C8.544,25.8461538 8.78030769,25.7556923 8.96030769,25.5756923 L10.1538462,24.3821538 L11.3473846,25.5756923 C11.5273846,25.7556923 11.7636923,25.8461538 12,25.8461538 C12.2363077,25.8461538 12.4726154,25.7556923 12.6526154,25.5756923 C13.0135385,25.2147692 13.0135385,24.6313846 12.6526154,24.2704615 L11.4590769,23.0769231 L12.6526154,21.8833846 C13.0135385,21.5224615 13.0135385,20.9390769 12.6526154,20.5781538 C12.2916923,20.2172308 11.7083077,20.2172308 11.3473846,20.5781538 L10.1538462,21.7716923 L8.96030769,20.5781538 C8.59938462,20.2172308 8.016,20.2172308 7.65507692,20.5781538 C7.29415385,20.9390769 7.29415385,21.5224615 7.65507692,21.8833846 L8.84861538,23.0769231 L7.65507692,24.2704615 C7.29415385,24.6304615 7.29415385,25.2147692 7.65507692,25.5756923 Z" id="Shape"></path>
            </g>
        </g>
    </g>
</svg>