<?xml version="1.0" encoding="UTF-8"?>
<svg width="16px" height="16px" viewBox="0 0 16 16" version="1.1" xmlns="http://www.w3.org/2000/svg" xmlns:xlink="http://www.w3.org/1999/xlink">
    <!-- Generator: Sketch 50.2 (55047) - http://www.bohemiancoding.com/sketch -->
    <title>if_icon-111-search_314478</title>
    <desc>Created with Sketch.</desc>
    <defs></defs>
    <g id="Page-1" stroke="none" stroke-width="1" fill="none" fill-rule="evenodd">
        <g id="Artboard-Copy" transform="translate(-1485.000000, -52.000000)" fill="#FFFFFF" fill-rule="nonzero">
            <g id="if_icon-111-search_314478" transform="translate(1485.000000, 52.000000)">
                <path d="M9.76517556,11.219721 C8.75436327,11.9399857 7.51756524,12.3636364 6.18181818,12.3636364 C2.7676941,12.3636364 0,9.59594225 0,6.18181818 C0,2.7676941 2.7676941,0 6.18181818,0 C9.59594225,0 12.3636364,2.7676941 12.3636364,6.18181818 C12.3636364,7.51756524 11.9399857,8.75436327 11.219721,9.76517556 L15.2813946,13.8268492 C15.6815408,14.2269953 15.6782046,14.86725 15.2812498,15.2642047 L15.2642047,15.2812498 C14.8682653,15.6771892 14.2237239,15.6782694 13.8268492,15.2813946 L9.76517556,11.219721 Z M6.18181818,10.9090909 C8.79261898,10.9090909 10.9090909,8.79261898 10.9090909,6.18181818 C10.9090909,3.57101738 8.79261898,1.45454545 6.18181818,1.45454545 C3.57101738,1.45454545 1.45454545,3.57101738 1.45454545,6.18181818 C1.45454545,8.79261898 3.57101738,10.9090909 6.18181818,10.9090909 Z" id="search"></path>
            </g>
        </g>
    </g>
</svg>