<?xml version="1.0" encoding="UTF-8"?>
<svg width="30px" height="48px" viewBox="0 0 30 48" version="1.1" xmlns="http://www.w3.org/2000/svg" xmlns:xlink="http://www.w3.org/1999/xlink">
    <!-- Generator: Sketch 50.2 (55047) - http://www.bohemiancoding.com/sketch -->
    <title>if_arrow-left-01_186410 copy</title>
    <desc>Created with Sketch.</desc>
    <defs></defs>
    <g id="Page-1" stroke="none" stroke-width="1" fill="none" fill-rule="evenodd">
        <g id="Artboard-Copy" transform="translate(-1850.000000, -506.000000)" fill="#FFFFFF" fill-rule="nonzero">
            <g id="if_arrow-left-01_186410-copy" transform="translate(1865.000000, 530.000000) rotate(-180.000000) translate(-1865.000000, -530.000000) translate(1850.000000, 506.000000)">
                <path d="M1.30112217,20.487 L20.4731222,1.317 C22.2311222,-0.439 25.1071222,-0.439 26.8631222,1.317 L28.4651222,2.917 C30.2211222,4.671 30.2211222,7.549 28.4651222,9.305 L13.8351222,23.935 L28.4651222,38.565 C30.2211222,40.321 30.2211222,43.199 28.4651222,44.953 L26.8631222,46.553 C25.1071222,48.311 22.2311222,48.311 20.4731222,46.553 L1.30112217,27.379 C0.357122165,26.439 -0.0608778345,25.175 0.00712216546,23.935 C-0.0608778345,22.695 0.357122165,21.431 1.30112217,20.487 Z" id="Shape"></path>
            </g>
        </g>
    </g>
</svg>