<?xml version="1.0" encoding="UTF-8"?>
<svg width="16px" height="16px" viewBox="0 0 16 16" version="1.1" xmlns="http://www.w3.org/2000/svg" xmlns:xlink="http://www.w3.org/1999/xlink">
    <!-- Generator: Sketch 50.2 (55047) - http://www.bohemiancoding.com/sketch -->
    <title>if_Close_1031533</title>
    <desc>Created with Sketch.</desc>
    <defs></defs>
    <g id="Page-1" stroke="none" stroke-width="1" fill="none" fill-rule="evenodd">
        <g id="Artboard-Copy" transform="translate(-1556.000000, -52.000000)" fill="#FFFFFF" fill-rule="nonzero">
            <g id="if_Close_1031533" transform="translate(1556.000000, 52.000000)">
                <path d="M9.06109091,8.01018182 L15.0530909,2.05090909 C15.3403636,1.76654545 15.3403636,1.30618182 15.0530909,1.02254545 C14.7665455,0.738181818 14.3010909,0.738181818 14.0145455,1.02254545 L8.02763636,6.97672727 L1.98545455,0.933818182 C1.69890909,0.646545455 1.23345455,0.646545455 0.946909091,0.933818182 C0.660363636,1.22181818 0.660363636,1.688 0.946909091,1.97527273 L6.98472727,8.01381818 L0.925090909,14.04 C0.638545455,14.3243636 0.638545455,14.7847273 0.925090909,15.0683636 C1.21163636,15.3527273 1.67709091,15.3527273 1.96363636,15.0683636 L8.01818182,9.04727273 L14.0363636,15.0661818 C14.3229091,15.3534545 14.7883636,15.3534545 15.0749091,15.0661818 C15.3614545,14.7781818 15.3614545,14.312 15.0749091,14.0247273 L9.06109091,8.01018182 Z" id="Close"></path>
            </g>
        </g>
    </g>
</svg>